<svg version="1.0" xmlns="http://www.w3.org/2000/svg"
 width="96.000000pt" height="96.000000pt" viewBox="0 0 96.000000 96.000000"
 preserveAspectRatio="xMidYMid meet">

<g transform="translate(0.000000,96.000000) scale(0.100000,-0.100000)"
fill="#616B77" stroke="none">
<path d="M89 811 l-29 -29 0 -151 0 -151 30 0 30 0 0 90 0 90 360 0 360 0 -2
-237 -3 -238 -87 -3 -88 -3 0 -29 0 -30 91 0 c87 0 92 1 120 29 l29 29 0 302
0 302 -29 29 -29 29 -362 0 -362 0 -29 -29z m749 -63 l3 -28 -360 0 -361 0 0
23 c0 13 3 27 7 30 4 4 164 6 357 5 l351 -3 3 -27z"/>
<path d="M79 393 c-18 -46 -21 -164 -7 -218 12 -46 16 -50 46 -53 17 -2 32 -2
32 0 0 2 -7 25 -15 52 -19 63 -19 129 0 192 8 27 15 50 15 52 0 1 -14 2 -30 2
-24 0 -33 -6 -41 -27z"/>
<path d="M249 398 c5 -13 18 -47 30 -75 l21 -53 -21 -52 c-43 -107 -42 -98 -8
-98 24 0 32 6 40 30 14 38 24 38 38 0 8 -24 16 -30 40 -30 l31 0 -21 53 c-12
28 -25 62 -30 75 -5 12 -5 32 0 45 5 12 18 46 30 75 l21 52 -31 0 c-24 0 -32
-6 -40 -30 -6 -16 -15 -30 -19 -30 -4 0 -13 14 -19 30 -8 24 -16 30 -40 30
-28 0 -30 -2 -22 -22z"/>
<path d="M510 418 c0 -2 7 -25 15 -52 8 -27 15 -70 15 -96 0 -26 -7 -69 -15
-96 -8 -27 -15 -50 -15 -52 0 -2 15 -2 33 0 29 3 33 7 45 53 14 54 11 172 -7
218 -8 21 -17 27 -41 27 -16 0 -30 -1 -30 -2z"/>
</g>
</svg>
