<svg width="35" height="35" viewBox="0 0 35 35" fill="none" xmlns="http://www.w3.org/2000/svg">
<path d="M17.4028 16.8195C20.0278 16.8195 22.0695 14.6806 22.0695 12.0556C22.0695 9.43058 19.9306 7.38892 17.3056 7.38892C14.6806 7.38892 12.6389 9.5278 12.6389 12.0556C12.6389 14.6806 14.7778 16.8195 17.4028 16.8195ZM17.3056 9.33336C17.4028 9.33336 17.4028 9.33336 17.3056 9.33336C18.8611 9.33336 20.125 10.5972 20.125 12.1528C20.125 13.7084 18.8611 14.875 17.3056 14.875C15.75 14.875 14.5834 13.6111 14.5834 12.1528C14.5834 10.5972 15.8472 9.33336 17.3056 9.33336V9.33336Z" fill="#647AF7"/>
<path d="M31.7916 16.2361C29.9444 14.5833 27.5138 13.7083 24.986 13.8055H24.2083C24.0138 14.5833 23.7221 15.2639 23.3333 15.8472C23.9166 15.75 24.4027 15.75 24.986 15.75C26.8333 15.6528 28.6805 16.2361 30.1388 17.3055V24.3055H32.0833V16.5278L31.7916 16.2361Z" fill="#647AF7"/>
<path d="M22.75 7.58332C23.2361 6.41665 24.5973 5.83332 25.8611 6.31943C27.0278 6.80554 27.6111 8.16665 27.125 9.43054C26.7361 10.3055 25.8611 10.8889 24.9861 10.8889C24.7917 10.8889 24.5 10.8889 24.3056 10.7917C24.4028 11.2778 24.4028 11.7639 24.4028 12.1528V12.7361C24.5973 12.7361 24.7917 12.8333 24.9861 12.8333C27.4167 12.8333 29.3611 10.8889 29.3611 8.55554C29.3611 6.12499 27.4167 4.18054 25.0834 4.18054C23.5278 4.18054 22.1667 4.95832 21.3889 6.31943C21.875 6.6111 22.3611 6.99999 22.75 7.58332V7.58332Z" fill="#647AF7"/>
<path d="M11.6667 15.9444C11.2779 15.3611 10.9862 14.6806 10.7917 13.9028H10.014C7.48619 13.8056 5.05564 14.6806 3.20841 16.2361L2.91675 16.5278V24.3056H4.86119V17.3056C6.41675 16.2361 8.16675 15.6528 10.014 15.75C10.5973 15.75 11.1806 15.8472 11.6667 15.9444Z" fill="#647AF7"/>
<path d="M10.0139 12.7361C10.2083 12.7361 10.4028 12.7361 10.5972 12.6389V12.0556C10.5972 11.5694 10.5972 11.0833 10.6944 10.6944C10.5 10.7917 10.2083 10.7917 10.0139 10.7917C8.74999 10.7917 7.68055 9.72223 7.68055 8.45834C7.68055 7.19445 8.74999 6.12501 10.0139 6.12501C10.9861 6.12501 11.8611 6.70834 12.25 7.58334C12.6389 7.09723 13.2222 6.61112 13.7083 6.22223C12.4444 4.18056 9.81944 3.50001 7.77777 4.76389C5.7361 6.02778 5.05555 8.65278 6.31944 10.6944C7.09721 11.9583 8.45833 12.7361 10.0139 12.7361V12.7361Z" fill="#647AF7"/>
<path d="M25.3749 22.0694L25.1805 21.7778C23.2361 19.6389 20.5138 18.375 17.5972 18.4722C14.6805 18.375 11.8611 19.6389 9.91661 21.7778L9.72217 22.0694V29.4583C9.72217 30.3333 10.4027 31.1111 11.3749 31.1111H23.8194C24.6944 31.1111 25.4722 30.3333 25.4722 29.4583V22.0694H25.3749ZM23.4305 29.1667H11.6666V22.75C13.2222 21.1944 15.3611 20.4167 17.5972 20.4167C19.7361 20.3194 21.8749 21.1944 23.4305 22.75V29.1667Z" fill="#647AF7"/>
</svg>
