<svg width="25" height="25" viewBox="0 0 25 25" fill="none" xmlns="http://www.w3.org/2000/svg">
<g clip-path="url(#clip0_74_10193)">
<path d="M12.2 25C8.26875 25 4.62875 23.2563 2.215 20.32C2.14623 20.2368 2.09491 20.1406 2.06409 20.0371C2.03327 19.9336 2.02358 19.825 2.03559 19.7177C2.0476 19.6104 2.08108 19.5066 2.13402 19.4125C2.18696 19.3184 2.25828 19.236 2.34375 19.17C2.51774 19.0336 2.73801 18.9704 2.95785 18.9937C3.17768 19.0171 3.37977 19.1251 3.52125 19.295C4.57671 20.5735 5.90279 21.6017 7.40383 22.3055C8.90486 23.0094 10.5434 23.3712 12.2012 23.365C18.345 23.365 23.3263 18.5 23.3263 12.5C23.3263 6.5 18.345 1.635 12.2012 1.635C10.5195 1.62858 8.85792 2.00087 7.33972 2.72427C5.82151 3.44767 4.48566 4.5036 3.43125 5.81375C3.29215 5.98537 3.0917 6.09608 2.87237 6.12245C2.65304 6.14882 2.43206 6.08876 2.25625 5.955C2.17003 5.89016 2.09773 5.80865 2.04363 5.71532C1.98953 5.62199 1.95475 5.51874 1.94134 5.4117C1.92793 5.30466 1.93617 5.19601 1.96557 5.09222C1.99498 4.98843 2.04494 4.8916 2.1125 4.8075C4.5225 1.795 8.21125 0 12.2 0C19.2713 0 25 5.59625 25 12.5C25 19.4037 19.27 25 12.2 25ZM3.6275 16.05L0.244999 12.6663C-0.0825011 12.34 -0.08875 11.8162 0.23 11.4962L3.535 8.1925C3.69183 8.03904 3.90318 7.95415 4.12259 7.95649C4.34199 7.95884 4.55149 8.04822 4.705 8.205C4.7829 8.28095 4.84505 8.37152 4.88791 8.47152C4.93077 8.57152 4.95349 8.67899 4.95476 8.78777C4.95604 8.89656 4.93585 9.00454 4.89535 9.10551C4.85486 9.20649 4.79484 9.29849 4.71875 9.37625L2.785 11.31L15.6725 11.31C15.7812 11.3087 15.889 11.3288 15.9899 11.3691C16.0908 11.4095 16.1828 11.4694 16.2606 11.5453C16.3383 11.6212 16.4004 11.7117 16.4432 11.8116C16.486 11.9115 16.5087 12.0188 16.51 12.1275C16.51 12.58 16.135 12.9463 15.6725 12.9463L2.83625 12.9463L4.78375 14.8937C4.94069 15.0471 5.03031 15.2565 5.03289 15.4759C5.03547 15.6953 4.9508 15.9068 4.7975 16.0637C4.64051 16.217 4.42906 16.3017 4.20965 16.2991C3.99024 16.2966 3.78085 16.2069 3.6275 16.05V16.05Z" fill="#242424"/>
</g>
<defs>
<clipPath id="clip0_74_10193">
<rect width="25" height="25" fill="white"/>
</clipPath>
</defs>
</svg>
