<svg width="23" height="23" viewBox="0 0 23 23" fill="none" xmlns="http://www.w3.org/2000/svg">
<path d="M10.4219 19.4062C10.4219 18.8108 10.9046 18.3281 11.5 18.3281C12.0954 18.3281 12.5781 18.8108 12.5781 19.4062C12.5781 20.0017 12.0954 20.4844 11.5 20.4844C10.9046 20.4844 10.4219 20.0017 10.4219 19.4062Z" stroke="#616B77" stroke-width="1.5" stroke-linecap="round" stroke-linejoin="round"/>
<path d="M10.4219 11.5C10.4219 10.9046 10.9046 10.4219 11.5 10.4219C12.0954 10.4219 12.5781 10.9046 12.5781 11.5C12.5781 12.0954 12.0954 12.5781 11.5 12.5781C10.9046 12.5781 10.4219 12.0954 10.4219 11.5Z" stroke="#616B77" stroke-width="1.5" stroke-linecap="round" stroke-linejoin="round"/>
<path d="M10.4219 3.59375C10.4219 2.99832 10.9046 2.51562 11.5 2.51562C12.0954 2.51562 12.5781 2.99832 12.5781 3.59375C12.5781 4.18918 12.0954 4.67188 11.5 4.67188C10.9046 4.67188 10.4219 4.18918 10.4219 3.59375Z" stroke="#616B77" stroke-width="1.5" stroke-linecap="round" stroke-linejoin="round"/>
</svg>
