<svg width="28" height="28" viewBox="0 0 28 28" fill="none" xmlns="http://www.w3.org/2000/svg">
<path d="M27.0158 10.8648C26.8903 10.4755 26.6595 10.1284 26.349 9.86209C26.0384 9.59577 25.6603 9.42058 25.2563 9.35591L18.9175 8.32576L15.9791 2.61562C15.7919 2.2521 15.5082 1.94717 15.1591 1.73427C14.81 1.52138 14.4091 1.40875 14.0002 1.40875C13.5913 1.40875 13.1903 1.52138 12.8413 1.73427C12.4922 1.94717 12.2085 2.2521 12.0213 2.61562L9.08286 8.32576L2.74419 9.35591C2.34064 9.42159 1.96297 9.59716 1.65263 9.86336C1.34229 10.1296 1.11127 10.4761 0.984921 10.865C0.85857 11.2538 0.84177 11.67 0.936364 12.0677C1.03096 12.4655 1.23329 12.8295 1.52116 13.1199L6.04382 17.6791L5.06491 24.0258C5.0021 24.4301 5.05199 24.8438 5.20909 25.2215C5.3662 25.5993 5.62443 25.9263 5.9554 26.1668C6.28636 26.4073 6.67723 26.5518 7.08501 26.5845C7.4928 26.6172 7.90171 26.5368 8.26675 26.3521L14.0002 23.4597L19.7338 26.3521C20.0989 26.5364 20.5077 26.6165 20.9153 26.5836C21.3229 26.5508 21.7136 26.4062 22.0445 26.1659C22.3753 25.9255 22.6335 25.5986 22.7907 25.2211C22.9479 24.8435 22.9981 24.43 22.9356 24.0258L21.9567 17.6791L26.4794 13.1199C26.7682 12.8301 26.9711 12.4661 27.0658 12.0681C27.1605 11.6701 27.1432 11.2536 27.0158 10.8648V10.8648ZM25.2368 11.8875L20.0924 17.0735L21.206 24.2928C21.2198 24.3792 21.2094 24.4678 21.176 24.5487C21.1425 24.6296 21.0873 24.6997 21.0165 24.7512C20.9457 24.8026 20.862 24.8335 20.7747 24.8403C20.6874 24.8471 20.5999 24.8296 20.522 24.7898L14.0002 21.4996L7.47838 24.7899C7.40042 24.8297 7.31295 24.8472 7.22566 24.8404C7.13837 24.8336 7.05467 24.8027 6.98384 24.7513C6.91301 24.6998 6.8578 24.6297 6.82435 24.5488C6.79089 24.4679 6.78049 24.3793 6.79429 24.2929L7.908 17.0735L2.76361 11.8874C2.70217 11.8254 2.65901 11.7476 2.63884 11.6626C2.61867 11.5777 2.62227 11.4888 2.64926 11.4057C2.67624 11.3227 2.72556 11.2486 2.79182 11.1918C2.85808 11.1349 2.93872 11.0973 3.0249 11.0832L10.235 9.91148L13.5774 3.41641C13.6174 3.33872 13.678 3.27354 13.7526 3.22803C13.8271 3.18253 13.9128 3.15845 14.0002 3.15845C14.0876 3.15845 14.1732 3.18253 14.2478 3.22803C14.3224 3.27354 14.383 3.33872 14.423 3.41641L17.7654 9.91148L24.9755 11.0832C25.0617 11.0973 25.1423 11.1349 25.2086 11.1918C25.2748 11.2486 25.3241 11.3227 25.3511 11.4057C25.3781 11.4888 25.3817 11.5777 25.3615 11.6626C25.3414 11.7476 25.2982 11.8254 25.2368 11.8874L25.2368 11.8875Z" fill="#616B77"/>
</svg>
