<svg width="31" height="31" viewBox="0 0 31 31" fill="none" xmlns="http://www.w3.org/2000/svg">
<path d="M15.5 27.125C18.0693 27.125 20.5333 26.1044 22.3501 24.2876C24.1669 22.4708 25.1875 20.0068 25.1875 17.4375C25.1875 14.8682 24.1669 12.4042 22.3501 10.5874C20.5333 8.77064 18.0693 7.75 15.5 7.75C12.9307 7.75 10.4667 8.77064 8.6499 10.5874C6.83314 12.4042 5.8125 14.8682 5.8125 17.4375C5.8125 20.0068 6.83314 22.4708 8.6499 24.2876C10.4667 26.1044 12.9307 27.125 15.5 27.125V27.125ZM15.5 29.0625C12.4169 29.0625 9.45999 27.8377 7.27988 25.6576C5.09977 23.4775 3.875 20.5206 3.875 17.4375C3.875 14.3544 5.09977 11.3975 7.27988 9.21738C9.45999 7.03727 12.4169 5.8125 15.5 5.8125C18.5831 5.8125 21.54 7.03727 23.7201 9.21738C25.9002 11.3975 27.125 14.3544 27.125 17.4375C27.125 20.5206 25.9002 23.4775 23.7201 25.6576C21.54 27.8377 18.5831 29.0625 15.5 29.0625Z" fill="#616B77"/>
<path d="M15.4999 9.6875C15.7568 9.6875 16.0032 9.78956 16.1849 9.97124C16.3666 10.1529 16.4686 10.3993 16.4686 10.6562L16.4531 17.4375C16.4531 17.6944 16.3511 17.9408 16.1694 18.1225C15.9877 18.3042 15.7413 18.4062 15.4844 18.4062C15.2274 18.4062 14.981 18.3042 14.7994 18.1225C14.6177 17.9408 14.5156 17.6944 14.5156 17.4375L14.5311 10.6562C14.5311 10.3993 14.6332 10.1529 14.8149 9.97124C14.9965 9.78956 15.2429 9.6875 15.4999 9.6875V9.6875Z" fill="#616B77"/>
<path d="M13.5625 17.4375C13.5625 17.9514 13.7666 18.4442 14.13 18.8075C14.4933 19.1709 14.9861 19.375 15.5 19.375C16.0139 19.375 16.5067 19.1709 16.87 18.8075C17.2334 18.4442 17.4375 17.9514 17.4375 17.4375C17.4375 16.9236 17.2334 16.4308 16.87 16.0675C16.5067 15.7041 16.0139 15.5 15.5 15.5C14.9861 15.5 14.4933 15.7041 14.13 16.0675C13.7666 16.4308 13.5625 16.9236 13.5625 17.4375ZM16.4688 3.875V7.75H14.5312V3.875H11.625C11.3681 3.875 11.1217 3.77294 10.94 3.59126C10.7583 3.40958 10.6562 3.16318 10.6562 2.90625C10.6562 2.64932 10.7583 2.40292 10.94 2.22124C11.1217 2.03956 11.3681 1.9375 11.625 1.9375H19.375C19.6319 1.9375 19.8783 2.03956 20.06 2.22124C20.2417 2.40292 20.3438 2.64932 20.3438 2.90625C20.3438 3.16318 20.2417 3.40958 20.06 3.59126C19.8783 3.77294 19.6319 3.875 19.375 3.875H16.4688Z" fill="#616B77"/>
</svg>
