<svg width="27" height="27" viewBox="0 0 27 27" fill="none" xmlns="http://www.w3.org/2000/svg">
<path d="M8.53596 7.25C8.43761 7.25014 8.34054 7.27239 8.25193 7.3151C8.16333 7.35781 8.08546 7.41989 8.02409 7.49675L4.02096 12.5H9.87471C10.0488 12.5 10.2157 12.5691 10.3388 12.6922C10.4618 12.8153 10.531 12.9822 10.531 13.1562C10.531 13.6784 10.7384 14.1792 11.1076 14.5484C11.4768 14.9176 11.9776 15.125 12.4997 15.125C13.0219 15.125 13.5226 14.9176 13.8918 14.5484C14.261 14.1792 14.4685 13.6784 14.4685 13.1562C14.4685 12.9822 14.5376 12.8153 14.6607 12.6922C14.7837 12.5691 14.9507 12.5 15.1247 12.5H20.9785L16.9753 7.49675C16.914 7.41989 16.8361 7.35781 16.7475 7.3151C16.6589 7.27239 16.5618 7.25014 16.4635 7.25H8.53596ZM21.6006 13.8125H15.7153C15.5647 14.5543 15.1623 15.2211 14.5763 15.7001C13.9902 16.1791 13.2566 16.4408 12.4997 16.4408C11.7428 16.4408 11.0092 16.1791 10.4232 15.7001C9.83713 15.2211 9.43471 14.5543 9.28409 13.8125H3.39884L3.81884 17.1751C3.8387 17.334 3.91598 17.4802 4.03613 17.5861C4.15628 17.692 4.311 17.7503 4.47115 17.75H20.5283C20.6882 17.75 20.8426 17.6915 20.9625 17.5857C21.0824 17.4798 21.1594 17.3338 21.1793 17.1751L21.5993 13.8125H21.6006ZM6.99903 6.67644C7.18356 6.44575 7.41764 6.25955 7.68393 6.13164C7.95021 6.00372 8.24186 5.93737 8.53728 5.9375H16.4622C16.7576 5.93737 17.0492 6.00372 17.3155 6.13164C17.5818 6.25955 17.8159 6.44575 18.0004 6.67644L22.8567 12.7467C22.9112 12.8152 22.9515 12.894 22.9752 12.9783C22.9988 13.0626 23.0054 13.1507 22.9945 13.2376L22.4826 17.3379C22.4231 17.8142 22.1916 18.2523 21.8317 18.5699C21.4718 18.8875 21.0083 19.0627 20.5283 19.0625H4.47115C3.99116 19.0627 3.52763 18.8875 3.16773 18.5699C2.80783 18.2523 2.57636 17.8142 2.51684 17.3379L2.00496 13.2376C1.99421 13.1507 2.00097 13.0624 2.02487 12.9781C2.04876 12.8938 2.0893 12.8151 2.14409 12.7467L7.00034 6.67644H6.99903Z" fill="#616B77"/>
</svg>
