<svg width="25" height="25" viewBox="0 0 25 25" fill="none" xmlns="http://www.w3.org/2000/svg">
<path d="M22.8555 12.2815H16.8555L14.8555 15.2815H10.8555L8.85547 12.2815H2.85547" stroke="#616B77" stroke-width="2" stroke-linecap="round" stroke-linejoin="round"/>
<path d="M6.30547 5.39149L2.85547 12.2815V18.2815C2.85547 18.8119 3.06618 19.3206 3.44126 19.6957C3.81633 20.0708 4.32504 20.2815 4.85547 20.2815H20.8555C21.3859 20.2815 21.8946 20.0708 22.2697 19.6957C22.6448 19.3206 22.8555 18.8119 22.8555 18.2815V12.2815L19.4055 5.39149C19.2399 5.05828 18.9846 4.77787 18.6684 4.58177C18.3522 4.38568 17.9876 4.28169 17.6155 4.28149H8.09547C7.72338 4.28169 7.35873 4.38568 7.04251 4.58177C6.72629 4.77787 6.47105 5.05828 6.30547 5.39149V5.39149Z" stroke="#616B77" stroke-width="2" stroke-linecap="round" stroke-linejoin="round"/>
</svg>

