<svg width="25" height="25" viewBox="0 0 25 25" fill="none" xmlns="http://www.w3.org/2000/svg">
<path d="M5.84726 22.6389C4.69879 22.639 3.59633 22.1876 2.77782 21.3819L2.68754 21.2917C2.27629 20.8904 1.94953 20.4108 1.7265 19.8813C1.50347 19.3517 1.38869 18.7829 1.38893 18.2083C1.38748 17.5863 1.50949 16.9701 1.7479 16.3955C1.98631 15.8209 2.33638 15.2994 2.77782 14.8611L13.5417 4.21527C14.6354 3.07656 16.1325 2.41301 17.7107 2.36755C19.2889 2.32209 20.8218 2.89835 21.9792 3.97221C22.5012 4.4929 22.9143 5.11229 23.1945 5.79426C23.4747 6.47624 23.6163 7.20716 23.6111 7.94443C23.605 8.76784 23.4361 9.58191 23.1144 10.3399C22.7926 11.0978 22.3242 11.7847 21.7361 12.3611L12.0625 21.9444C12.0024 22.0253 11.9254 22.0922 11.8368 22.1403C11.7483 22.1884 11.6503 22.2167 11.5497 22.2231C11.4491 22.2296 11.3483 22.2141 11.2544 22.1777C11.1604 22.1413 11.0754 22.0848 11.0055 22.0123C10.9355 21.9398 10.8821 21.8529 10.8491 21.7576C10.8161 21.6624 10.8042 21.5611 10.8142 21.4608C10.8243 21.3605 10.8561 21.2636 10.9073 21.1769C10.9586 21.0901 11.0282 21.0155 11.1111 20.9583L20.757 11.375C21.2151 10.9278 21.5803 10.3946 21.8318 9.80586C22.0832 9.21715 22.2159 8.58457 22.2223 7.94443C22.2273 7.39044 22.1218 6.841 21.9119 6.32827C21.7021 5.81554 21.3921 5.34981 21 4.95832C20.1027 4.14087 18.9203 3.70834 17.7073 3.75379C16.4943 3.79925 15.3476 4.31906 14.5139 5.20138L3.78476 15.8472C3.46859 16.1542 3.21671 16.5211 3.04383 16.9265C2.87095 17.3319 2.78052 17.7676 2.77782 18.2083C2.77633 18.5953 2.85168 18.9787 2.9995 19.3363C3.14732 19.6939 3.36466 20.0187 3.63893 20.2917L3.72921 20.3819C4.35056 20.9541 5.17174 21.2594 6.01597 21.2321C6.8602 21.2049 7.65997 20.8472 8.24309 20.2361L17.5139 11.0694C17.6893 10.8922 17.8275 10.6817 17.9205 10.4504C18.0135 10.2191 18.0594 9.97151 18.0556 9.72221C18.0571 9.50568 18.0155 9.29102 17.9333 9.09072C17.851 8.89042 17.7297 8.7085 17.5764 8.55555C17.2257 8.23396 16.7626 8.06317 16.2871 8.08006C15.8116 8.09695 15.3618 8.30016 15.0348 8.64582L8.64587 14.9792C8.51511 15.109 8.33811 15.1816 8.15383 15.1809C7.96955 15.1803 7.79308 15.1065 7.66323 14.9757C7.53339 14.8449 7.46081 14.6679 7.46146 14.4836C7.46211 14.2994 7.53594 14.1229 7.66671 13.993L14.0834 7.63888C14.6715 7.03633 15.473 6.68915 16.3149 6.67226C17.1567 6.65537 17.9715 6.97012 18.5834 7.5486C18.8648 7.83506 19.0859 8.17497 19.2338 8.54829C19.3817 8.92161 19.4534 9.32076 19.4445 9.72221C19.4437 10.1545 19.3568 10.5823 19.1886 10.9806C19.0205 11.3789 18.7746 11.7396 18.4653 12.0417L9.22226 21.2361C8.32635 22.1306 7.11326 22.6348 5.84726 22.6389Z" fill="#616B77"/>
</svg>
