<svg width="25" height="25" viewBox="0 0 25 25" fill="none" xmlns="http://www.w3.org/2000/svg">
<path d="M7.4996 7.5C7.4996 7.33424 7.56544 7.17527 7.68265 7.05806C7.79986 6.94085 7.95884 6.875 8.1246 6.875H11.8746C12.0404 6.875 12.1993 6.94085 12.3165 7.05806C12.4337 7.17527 12.4996 7.33424 12.4996 7.5C12.4996 7.66576 12.4337 7.82473 12.3165 7.94194C12.1993 8.05915 12.0404 8.125 11.8746 8.125H8.1246C7.95884 8.125 7.79986 8.05915 7.68265 7.94194C7.56544 7.82473 7.4996 7.66576 7.4996 7.5ZM8.1246 9.375C7.95884 9.375 7.79986 9.44085 7.68265 9.55806C7.56544 9.67527 7.4996 9.83424 7.4996 10C7.4996 10.1658 7.56544 10.3247 7.68265 10.4419C7.79986 10.5592 7.95884 10.625 8.1246 10.625H10.6246C10.7904 10.625 10.9493 10.5592 11.0665 10.4419C11.1837 10.3247 11.2496 10.1658 11.2496 10C11.2496 9.83424 11.1837 9.67527 11.0665 9.55806C10.9493 9.44085 10.7904 9.375 10.6246 9.375H8.1246ZM9.9996 1.25C8.69841 1.24956 7.41949 1.58766 6.28851 2.23106C5.15753 2.87446 4.21339 3.80104 3.54888 4.91975C2.88436 6.03846 2.52233 7.3108 2.49834 8.61177C2.47436 9.91274 2.78926 11.1976 3.4121 12.34L2.5246 15.4525C2.49337 15.5618 2.49254 15.6775 2.52219 15.7873C2.55184 15.897 2.61086 15.9966 2.69289 16.0752C2.77492 16.1539 2.87685 16.2088 2.98772 16.2338C3.09859 16.2589 3.2142 16.2532 3.3221 16.2175L6.2446 15.2437C7.24067 15.8193 8.35581 16.1581 9.50374 16.2338C10.6517 16.3094 11.8016 16.12 12.8646 15.6802C13.9277 15.2403 14.8752 14.5618 15.6341 13.6972C16.3929 12.8325 16.9427 11.8049 17.2408 10.6937C17.539 9.58263 17.5775 8.41782 17.3535 7.28942C17.1295 6.16102 16.6488 5.09929 15.9488 4.18635C15.2488 3.27342 14.3482 2.53375 13.3165 2.02458C12.2849 1.51541 11.15 1.25038 9.9996 1.25V1.25ZM3.7496 8.75C3.7498 7.36326 4.2112 6.01596 5.06115 4.92022C5.91111 3.82448 7.10134 3.04254 8.44447 2.69749C9.78761 2.35244 11.2074 2.46388 12.4802 3.01428C13.753 3.56467 14.8067 4.52275 15.4753 5.73769C16.1438 6.95263 16.3894 8.35541 16.1732 9.72521C15.957 11.095 15.2914 12.354 14.2812 13.304C13.271 14.254 11.9735 14.841 10.593 14.9727C9.21251 15.1044 7.82744 14.7732 6.65585 14.0313C6.57748 13.9816 6.48903 13.95 6.39692 13.9387C6.30482 13.9275 6.21136 13.9369 6.12335 13.9663L4.05085 14.6575L4.68835 12.4312C4.71157 12.3493 4.71779 12.2634 4.70661 12.1789C4.69543 12.0944 4.6671 12.0131 4.62335 11.94C4.04942 10.9751 3.74749 9.87272 3.7496 8.75ZM15.3446 18.6837L12.3421 17.1837C12.8921 17.03 13.4208 16.825 13.9208 16.5737L15.6246 17.4262L21.2496 14.6137V13.75C21.2496 13.4185 21.1179 13.1005 20.8835 12.8661C20.6491 12.6317 20.3311 12.5 19.9996 12.5H17.9071C18.0983 12.1 18.2583 11.6812 18.3871 11.25H19.9996C20.6626 11.25 21.2985 11.5134 21.7674 11.9822C22.2362 12.4511 22.4996 13.087 22.4996 13.75V20C22.4996 20.663 22.2362 21.2989 21.7674 21.7678C21.2985 22.2366 20.6626 22.5 19.9996 22.5H11.2496C10.5866 22.5 9.95067 22.2366 9.48183 21.7678C9.01299 21.2989 8.7496 20.663 8.7496 20V17.4125C9.15835 17.47 9.5746 17.5 9.9996 17.5V20C9.9996 20.3315 10.1313 20.6495 10.3657 20.8839C10.6001 21.1183 10.9181 21.25 11.2496 21.25H19.9996C20.3311 21.25 20.6491 21.1183 20.8835 20.8839C21.1179 20.6495 21.2496 20.3315 21.2496 20V16.0113L15.9046 18.6837C15.8177 18.7273 15.7218 18.75 15.6246 18.75C15.5274 18.75 15.4315 18.7273 15.3446 18.6837V18.6837Z" fill="#616B77"/>
</svg>
