<svg width="26" height="26" viewBox="0 0 26 26" fill="none" xmlns="http://www.w3.org/2000/svg">
<path d="M11.0408 6.3713C10.5754 6.4623 10.0658 6.7639 9.66545 7.4711C9.62328 7.54536 9.5669 7.61059 9.49952 7.66307C9.43215 7.71554 9.35509 7.75423 9.27277 7.77692C9.19044 7.79962 9.10444 7.80587 9.0197 7.79533C8.93495 7.7848 8.85311 7.75767 8.77885 7.7155C8.70459 7.67333 8.63936 7.61695 8.58688 7.54958C8.53441 7.4822 8.49572 7.40515 8.47303 7.32282C8.45033 7.24049 8.44408 7.1545 8.45461 7.06975C8.46515 6.985 8.49228 6.90316 8.53445 6.8289C9.10775 5.8201 9.92285 5.265 10.7912 5.096C11.5993 4.9434 12.4349 5.11175 13.1208 5.5653C13.75 5.9813 14.2583 6.6612 14.2739 7.4763C14.2908 8.3278 13.7734 9.0961 12.8192 9.6603C12.1718 10.0425 11.9196 10.3025 11.8117 10.4754C11.7207 10.621 11.6999 10.7536 11.6999 11.05C11.6999 11.2224 11.6315 11.3877 11.5096 11.5096C11.3877 11.6315 11.2223 11.7 11.0499 11.7C10.8776 11.7 10.7122 11.6315 10.5903 11.5096C10.4684 11.3877 10.3999 11.2224 10.3999 11.05C10.3999 10.6964 10.4181 10.257 10.708 9.789C10.981 9.3509 11.4477 8.9609 12.1575 8.541C12.853 8.1289 12.9791 7.7376 12.9752 7.5036C12.9687 7.2345 12.7906 6.9056 12.4032 6.6495C12.0021 6.38415 11.5139 6.28444 11.0408 6.3713V6.3713ZM11.3749 14.95C11.6335 14.95 11.8815 14.8473 12.0644 14.6644C12.2472 14.4816 12.3499 14.2336 12.3499 13.975C12.3499 13.7164 12.2472 13.4684 12.0644 13.2856C11.8815 13.1027 11.6335 13 11.3749 13C11.1164 13 10.8684 13.1027 10.6855 13.2856C10.5027 13.4684 10.3999 13.7164 10.3999 13.975C10.3999 14.2336 10.5027 14.4816 10.6855 14.6644C10.8684 14.8473 11.1164 14.95 11.3749 14.95ZM11.0499 1.3C9.57638 1.29966 8.12834 1.68466 6.84954 2.41682C5.57073 3.14897 4.50561 4.20281 3.75989 5.47375C3.01417 6.7447 2.61377 8.18855 2.59844 9.66204C2.5831 11.1355 2.95335 12.5874 3.67245 13.8736L2.63895 16.5802C2.55293 16.8052 2.53111 17.0497 2.57592 17.2863C2.62074 17.523 2.73043 17.7426 2.89275 17.9205C3.05508 18.0985 3.26365 18.2279 3.49522 18.2942C3.72678 18.3605 3.97222 18.3612 4.20415 18.2962L7.43725 17.3901C8.58253 17.9312 9.83483 18.208 11.1015 18.1998C12.3682 18.1917 13.6168 17.8989 14.755 17.343C15.8932 16.7872 16.892 15.9826 17.6773 14.9887C18.4626 13.9948 19.0144 12.8371 19.2919 11.6012C19.5694 10.3653 19.5655 9.08277 19.2804 7.84856C18.9954 6.61435 18.4365 5.46002 17.6452 4.47094C16.8538 3.48187 15.8502 2.68336 14.7086 2.13449C13.567 1.58562 12.3166 1.30042 11.0499 1.3V1.3ZM3.89995 9.75C3.90053 8.19186 4.41007 6.67656 5.35106 5.43464C6.29205 4.19273 7.61297 3.2922 9.11284 2.87006C10.6127 2.44792 12.2094 2.52729 13.66 3.09608C15.1106 3.66488 16.3357 4.69196 17.1489 6.02107C17.9621 7.35017 18.3189 8.90854 18.165 10.4591C18.011 12.0096 17.3548 13.4674 16.2961 14.6106C15.2375 15.7539 13.8343 16.52 12.3002 16.7925C10.7661 17.065 9.18493 16.8288 7.79735 16.12L7.57115 16.003L3.85315 17.0443L5.11285 13.7475L4.94645 13.4745C4.26024 12.3535 3.89801 11.0643 3.89995 9.75V9.75ZM14.9018 22.1C13.6855 22.1013 12.4832 21.8395 11.3776 21.3323C10.272 20.8252 9.28922 20.0848 8.49675 19.162C9.24335 19.3643 10.0115 19.4764 10.7847 19.4961C11.989 20.3466 13.4276 20.8023 14.9018 20.8C16.0744 20.8 17.1794 20.5179 18.1544 20.02L18.3806 19.903L22.0986 20.9443L20.8389 17.6475L21.0053 17.3745C21.6683 16.2903 22.0518 15.0163 22.0518 13.65C22.0539 12.2064 21.6168 10.7964 20.7986 9.607C20.788 8.83363 20.6855 8.06426 20.4931 7.3151C21.3926 8.10711 22.1128 9.08182 22.6058 10.1742C23.0987 11.2666 23.3531 12.4515 23.3518 13.65C23.3518 15.1463 22.9618 16.5529 22.278 17.7736L23.3128 20.4802C23.3987 20.7051 23.4205 20.9494 23.3757 21.1859C23.331 21.4224 23.2214 21.6418 23.0593 21.8197C22.8971 21.9976 22.6888 22.127 22.4574 22.1935C22.2261 22.26 21.9808 22.2609 21.7489 22.1962L18.5145 21.2901C17.4186 21.8101 16.1927 22.1 14.9005 22.1H14.9018Z" fill="#616B77"/>
</svg>
