<svg width="26" height="26" viewBox="0 0 26 26" fill="none" xmlns="http://www.w3.org/2000/svg">
<path d="M11.0413 6.37129C10.5759 6.46229 10.0663 6.76389 9.66594 7.47109C9.62377 7.54535 9.56739 7.61058 9.50001 7.66305C9.43263 7.71553 9.35558 7.75422 9.27325 7.77691C9.19093 7.7996 9.10493 7.80586 9.02019 7.79532C8.93544 7.78478 8.8536 7.75766 8.77934 7.71549C8.70507 7.67332 8.63984 7.61694 8.58737 7.54956C8.5349 7.48219 8.49621 7.40513 8.47352 7.32281C8.45082 7.24048 8.44456 7.15448 8.4551 7.06974C8.46564 6.98499 8.49277 6.90315 8.53494 6.82889C9.10824 5.82009 9.92334 5.26499 10.7917 5.09599C11.5998 4.94339 12.4354 5.11174 13.1213 5.56529C13.7505 5.98129 14.2588 6.66119 14.2744 7.47629C14.2913 8.32779 13.7739 9.09609 12.8197 9.66029C12.1723 10.0425 11.9201 10.3025 11.8122 10.4754C11.7212 10.621 11.7004 10.7536 11.7004 11.05C11.7004 11.2224 11.632 11.3877 11.5101 11.5096C11.3882 11.6315 11.2228 11.7 11.0504 11.7C10.878 11.7 10.7127 11.6315 10.5908 11.5096C10.4689 11.3877 10.4004 11.2224 10.4004 11.05C10.4004 10.6964 10.4186 10.257 10.7085 9.78899C10.9815 9.35089 11.4482 8.96089 12.158 8.54099C12.8535 8.12889 12.9796 7.73759 12.9757 7.50359C12.9692 7.23449 12.7911 6.90559 12.4037 6.64949C12.0026 6.38414 11.5144 6.28443 11.0413 6.37129V6.37129ZM11.3754 14.95C11.634 14.95 11.882 14.8473 12.0649 14.6644C12.2477 14.4816 12.3504 14.2336 12.3504 13.975C12.3504 13.7164 12.2477 13.4684 12.0649 13.2856C11.882 13.1027 11.634 13 11.3754 13C11.1169 13 10.8689 13.1027 10.686 13.2856C10.5032 13.4684 10.4004 13.7164 10.4004 13.975C10.4004 14.2336 10.5032 14.4816 10.686 14.6644C10.8689 14.8473 11.1169 14.95 11.3754 14.95ZM11.0504 1.29999C9.57687 1.29964 8.12883 1.68465 6.85002 2.4168C5.57122 3.14896 4.5061 4.2028 3.76038 5.47374C3.01466 6.74468 2.61426 8.18854 2.59892 9.66203C2.58358 11.1355 2.95384 12.5874 3.67294 13.8736L2.63944 16.5802C2.55341 16.8052 2.53159 17.0496 2.57641 17.2863C2.62122 17.523 2.73091 17.7426 2.89324 17.9205C3.05556 18.0985 3.26414 18.2278 3.4957 18.2942C3.72727 18.3605 3.9727 18.3612 4.20464 18.2962L7.43774 17.3901C8.58302 17.9312 9.83531 18.208 11.102 18.1998C12.3686 18.1917 13.6173 17.8989 14.7555 17.343C15.8937 16.7872 16.8924 15.9826 17.6777 14.9887C18.4631 13.9948 19.0149 12.8371 19.2924 11.6012C19.5699 10.3653 19.566 9.08275 19.2809 7.84855C18.9959 6.61434 18.437 5.46001 17.6457 4.47093C16.8543 3.48186 15.8507 2.68335 14.7091 2.13448C13.5675 1.5856 12.3171 1.30041 11.0504 1.29999V1.29999ZM3.90044 9.74999C3.90102 8.19185 4.41056 6.67654 5.35155 5.43463C6.29254 4.19272 7.61346 3.29219 9.11333 2.87005C10.6132 2.44791 12.2099 2.52727 13.6605 3.09607C15.1111 3.66486 16.3362 4.69195 17.1494 6.02105C17.9626 7.35016 18.3194 8.90852 18.1655 10.459C18.0115 12.0096 17.3553 13.4674 16.2966 14.6106C15.238 15.7539 13.8348 16.52 12.3007 16.7925C10.7666 17.0649 9.18542 16.8288 7.79784 16.12L7.57164 16.003L3.85364 17.0443L5.11334 13.7475L4.94694 13.4745C4.26072 12.3535 3.89849 11.0643 3.90044 9.74999V9.74999ZM14.9023 22.1C13.686 22.1013 12.4837 21.8395 11.3781 21.3323C10.2725 20.8252 9.28971 20.0848 8.49724 19.162C9.24384 19.3643 10.012 19.4764 10.7852 19.4961C11.9894 20.3466 13.428 20.8022 14.9023 20.8C16.0749 20.8 17.1799 20.5179 18.1549 20.02L18.3811 19.903L22.0991 20.9443L20.8394 17.6475L21.0058 17.3745C21.6688 16.2903 22.0523 15.0163 22.0523 13.65C22.0544 12.2064 21.6173 10.7963 20.7991 9.60699C20.7885 8.83361 20.6859 8.06425 20.4936 7.31509C21.3931 8.1071 22.1133 9.08181 22.6063 10.1742C23.0992 11.2666 23.3536 12.4515 23.3523 13.65C23.3523 15.1463 22.9623 16.5529 22.2785 17.7736L23.3133 20.4802C23.3992 20.7051 23.421 20.9494 23.3762 21.1859C23.3314 21.4224 23.2219 21.6418 23.0597 21.8197C22.8976 21.9976 22.6892 22.127 22.4579 22.1935C22.2265 22.26 21.9813 22.2609 21.7494 22.1962L18.515 21.2901C17.4191 21.8101 16.1932 22.1 14.901 22.1H14.9023Z" fill="#616B77"/>
</svg>
