<svg width="38" height="38" viewBox="0 0 45 45" fill="none" xmlns="http://www.w3.org/2000/svg">
<path d="M23.8184 6.67969H21.1816C20.9473 6.67969 20.8301 6.79687 20.8301 7.03125L20.8301 37.9688C20.8301 38.2031 20.9473 38.3203 21.1816 38.3203H23.8184C24.0527 38.3203 24.1699 38.2031 24.1699 37.9688L24.1699 7.03125C24.1699 6.79687 24.0527 6.67969 23.8184 6.67969Z" fill="white"/>
<path d="M37.2656 20.8301L7.73438 20.8301C7.5 20.8301 7.38281 20.9473 7.38281 21.1816V23.8184C7.38281 24.0527 7.5 24.1699 7.73438 24.1699L37.2656 24.1699C37.5 24.1699 37.6172 24.0527 37.6172 23.8184V21.1816C37.6172 20.9473 37.5 20.8301 37.2656 20.8301Z" fill="white"/>
</svg>
