<svg width="21" height="21" viewBox="0 0 21 21" fill="none" xmlns="http://www.w3.org/2000/svg">
<g clip-path="url(#clip0_366_7559)">
<path d="M18.666 3.5H2.33268C2.02326 3.5 1.72652 3.62292 1.50772 3.84171C1.28893 4.0605 1.16602 4.35725 1.16602 4.66667V16.3333C1.16602 16.6428 1.28893 16.9395 1.50772 17.1583C1.72652 17.3771 2.02326 17.5 2.33268 17.5H18.666C18.9754 17.5 19.2722 17.3771 19.491 17.1583C19.7098 16.9395 19.8327 16.6428 19.8327 16.3333V4.66667C19.8327 4.35725 19.7098 4.0605 19.491 3.84171C19.2722 3.62292 18.9754 3.5 18.666 3.5ZM17.7677 16.3333H3.30102L7.38435 12.11L6.54435 11.2992L2.33268 15.6567V5.55333L9.58352 12.7692C9.8021 12.9865 10.0978 13.1084 10.406 13.1084C10.7142 13.1084 11.0099 12.9865 11.2285 12.7692L18.666 5.3725V15.5808L14.3727 11.2875L13.5502 12.11L17.7677 16.3333ZM3.09685 4.66667H17.721L10.406 11.9408L3.09685 4.66667Z" fill="#616B77"/>
</g>
<defs>
<clipPath id="clip0_366_7559">
<rect width="21" height="21" fill="white"/>
</clipPath>
</defs>
</svg>
