<svg width="29" height="29" viewBox="0 0 29 29" fill="none" xmlns="http://www.w3.org/2000/svg">
<path d="M26.26 18.2917C26.2576 18.2506 26.2467 18.2131 26.2358 18.1733C26.2249 18.1334 26.2153 18.0959 26.1983 18.0597C26.1923 18.0476 26.1923 18.0355 26.1863 18.0246L18.7453 5.13534C18.6923 5.04349 18.616 4.96723 18.5242 4.9142C18.4324 4.86117 18.3282 4.83325 18.2221 4.83325H10.7788C10.6732 4.83347 10.5694 4.86138 10.4779 4.91421C10.3962 4.96391 10.3278 5.03275 10.2785 5.11479C10.2725 5.12325 10.2628 5.12688 10.2568 5.13534L2.81588 18.0246C2.7625 18.1164 2.73438 18.2206 2.73438 18.3267C2.73438 18.4328 2.7625 18.5371 2.81588 18.6288L6.53755 25.0728C6.54601 25.0885 6.56413 25.0946 6.5738 25.1091C6.61388 25.1673 6.66425 25.2176 6.72242 25.2577C6.74538 25.2734 6.76351 25.2891 6.78767 25.3012C6.87105 25.3447 6.96047 25.3737 7.06076 25.3749H21.9438C22.0499 25.3749 22.154 25.347 22.2459 25.294C22.3377 25.2409 22.414 25.1647 22.467 25.0728L26.1875 18.6288C26.1959 18.6143 26.1935 18.595 26.1996 18.5805C26.2304 18.5159 26.2492 18.4463 26.2551 18.375C26.2563 18.3593 26.2672 18.3448 26.2672 18.3267C26.2672 18.3146 26.2624 18.3038 26.2612 18.2905L26.26 18.2917ZM17.8717 6.04159L24.6154 17.7225H18.5725L11.8264 6.04159H17.8729H17.8717ZM17.1745 17.7225H11.8252L14.5005 13.0886L17.1757 17.7225H17.1745ZM4.03388 18.3267L10.7788 6.64575L13.802 11.8815L7.05955 23.5624L4.03509 18.3267H4.03388ZM21.5934 24.1666H8.10597L11.1292 18.9309H24.6166L21.5934 24.1666Z" fill="#616B77"/>
</svg>
