<svg width="29" height="29" viewBox="0 0 29 29" fill="none" xmlns="http://www.w3.org/2000/svg">
<path d="M20.5415 3.62504C20.8589 3.30768 21.2356 3.05593 21.6503 2.88418C22.0649 2.71242 22.5094 2.62402 22.9582 2.62402C23.407 2.62402 23.8514 2.71242 24.2661 2.88418C24.6807 3.05593 25.0575 3.30768 25.3748 3.62504C25.6922 3.9424 25.9439 4.31916 26.1157 4.73382C26.2875 5.14847 26.3759 5.59289 26.3759 6.04171C26.3759 6.49052 26.2875 6.93494 26.1157 7.3496C25.9439 7.76425 25.6922 8.14101 25.3748 8.45837L9.06234 24.7709L2.4165 26.5834L4.229 19.9375L20.5415 3.62504Z" stroke="#616B77" stroke-width="2" stroke-linecap="round" stroke-linejoin="round"/>
</svg>
