<svg width="22" height="19" viewBox="0 0 22 19" fill="none" xmlns="http://www.w3.org/2000/svg">
<g clip-path="url(#clip0_366_19798)">
<path d="M10.9635 7.67308C11.8693 7.67308 12.6439 7.99469 13.2871 8.63792C13.9303 9.28115 14.252 10.0557 14.252 10.9615C14.252 11.8674 13.9303 12.6419 13.2871 13.2852C12.6439 13.9284 11.8693 14.25 10.9635 14.25C10.0576 14.25 9.28311 13.9284 8.63988 13.2852C7.99665 12.6419 7.67503 11.8674 7.67503 10.9615C7.67503 10.0557 7.99665 9.28115 8.63988 8.63792C9.28311 7.99469 10.0576 7.67308 10.9635 7.67308ZM19.002 2.92308C19.8089 2.92308 20.4978 3.20853 21.0687 3.77945C21.6396 4.35036 21.925 5.03926 21.925 5.84615V16.0769C21.925 16.8838 21.6396 17.5727 21.0687 18.1436C20.4978 18.7145 19.8089 19 19.002 19H2.92503C2.11814 19 1.42924 18.7145 0.858324 18.1436C0.28741 17.5727 0.00195312 16.8838 0.00195312 16.0769V5.84615C0.00195312 5.03926 0.28741 4.35036 0.858324 3.77945C1.42924 3.20853 2.11814 2.92308 2.92503 2.92308H5.48272L6.06506 1.37019C6.20969 0.997195 6.47421 0.675581 6.85863 0.405349C7.24304 0.135116 7.63697 0 8.04042 0H13.8866C14.29 0 14.6839 0.135116 15.0684 0.405349C15.4528 0.675581 15.7173 0.997195 15.8619 1.37019L16.4443 2.92308H19.002ZM10.9635 16.0769C12.3717 16.0769 13.5764 15.5764 14.5774 14.5754C15.5784 13.5744 16.0789 12.3698 16.0789 10.9615C16.0789 9.55329 15.5784 8.34866 14.5774 7.34766C13.5764 6.34665 12.3717 5.84615 10.9635 5.84615C9.55524 5.84615 8.35061 6.34665 7.34961 7.34766C6.34861 8.34866 5.84811 9.55329 5.84811 10.9615C5.84811 12.3698 6.34861 13.5744 7.34961 14.5754C8.35061 15.5764 9.55524 16.0769 10.9635 16.0769Z" fill="white"/>
</g>
<defs>
<clipPath id="clip0_366_19798">
<rect width="21.926" height="19" fill="white"/>
</clipPath>
</defs>
</svg>
