<svg width="34" height="34" viewBox="0 0 34 34" fill="none" xmlns="http://www.w3.org/2000/svg">
<path d="M14.1663 7.08333H19.833C19.833 6.33189 19.5345 5.61122 19.0031 5.07986C18.4718 4.54851 17.7511 4.25 16.9997 4.25C16.2482 4.25 15.5276 4.54851 14.9962 5.07986C14.4649 5.61122 14.1663 6.33189 14.1663 7.08333V7.08333ZM12.0413 7.08333C12.0413 6.4322 12.1696 5.78743 12.4188 5.18586C12.668 4.58429 13.0332 4.03769 13.4936 3.57726C13.954 3.11684 14.5006 2.75161 15.1022 2.50243C15.7038 2.25325 16.3485 2.125 16.9997 2.125C17.6508 2.125 18.2956 2.25325 18.8971 2.50243C19.4987 2.75161 20.0453 3.11684 20.5057 3.57726C20.9662 4.03769 21.3314 4.58429 21.5806 5.18586C21.8298 5.78743 21.958 6.4322 21.958 7.08333H30.1038C30.3856 7.08333 30.6559 7.19527 30.8551 7.39453C31.0544 7.59379 31.1663 7.86404 31.1663 8.14583C31.1663 8.42763 31.0544 8.69788 30.8551 8.89713C30.6559 9.09639 30.3856 9.20833 30.1038 9.20833H28.2338L26.5763 26.3656C26.4492 27.6802 25.8369 28.9004 24.8589 29.788C23.8809 30.6757 22.6073 31.1672 21.2865 31.1667H12.7128C11.3923 31.1668 10.1191 30.6751 9.14135 29.7875C8.16364 28.8999 7.55155 27.68 7.42442 26.3656L5.76551 9.20833H3.89551C3.61372 9.20833 3.34346 9.09639 3.14421 8.89713C2.94495 8.69788 2.83301 8.42763 2.83301 8.14583C2.83301 7.86404 2.94495 7.59379 3.14421 7.39453C3.34346 7.19527 3.61372 7.08333 3.89551 7.08333H12.0413ZM14.8747 13.8125C14.8747 13.5307 14.7627 13.2605 14.5635 13.0612C14.3642 12.8619 14.094 12.75 13.8122 12.75C13.5304 12.75 13.2601 12.8619 13.0609 13.0612C12.8616 13.2605 12.7497 13.5307 12.7497 13.8125V24.4375C12.7497 24.7193 12.8616 24.9895 13.0609 25.1888C13.2601 25.3881 13.5304 25.5 13.8122 25.5C14.094 25.5 14.3642 25.3881 14.5635 25.1888C14.7627 24.9895 14.8747 24.7193 14.8747 24.4375V13.8125ZM20.1872 12.75C20.469 12.75 20.7392 12.8619 20.9385 13.0612C21.1377 13.2605 21.2497 13.5307 21.2497 13.8125V24.4375C21.2497 24.7193 21.1377 24.9895 20.9385 25.1888C20.7392 25.3881 20.469 25.5 20.1872 25.5C19.9054 25.5 19.6351 25.3881 19.4359 25.1888C19.2366 24.9895 19.1247 24.7193 19.1247 24.4375V13.8125C19.1247 13.5307 19.2366 13.2605 19.4359 13.0612C19.6351 12.8619 19.9054 12.75 20.1872 12.75ZM9.53951 26.1616C9.61592 26.9502 9.98327 27.682 10.5699 28.2145C11.1566 28.7469 11.9206 29.0418 12.7128 29.0417H21.2865C22.0788 29.0418 22.8427 28.7469 23.4294 28.2145C24.0161 27.682 24.3834 26.9502 24.4598 26.1616L26.1003 9.20833H7.89901L9.53951 26.1616Z" fill="#616B77"/>
</svg>
