<svg width="20" height="20" viewBox="0 0 20 20" fill="none" xmlns="http://www.w3.org/2000/svg">
<path d="M9.99967 18.3333C10.9201 18.3333 11.6663 17.5871 11.6663 16.6667C11.6663 15.7462 10.9201 15 9.99967 15C9.0792 15 8.33301 15.7462 8.33301 16.6667C8.33301 17.5871 9.0792 18.3333 9.99967 18.3333Z" fill="white"/>
<path d="M9.99967 4.99996C10.9201 4.99996 11.6663 4.25377 11.6663 3.33329C11.6663 2.41282 10.9201 1.66663 9.99967 1.66663C9.0792 1.66663 8.33301 2.41282 8.33301 3.33329C8.33301 4.25377 9.0792 4.99996 9.99967 4.99996Z" fill="white"/>
<path d="M5.28581 16.3808C6.20628 16.3808 6.95247 15.6346 6.95247 14.7142C6.95247 13.7937 6.20628 13.0475 5.28581 13.0475C4.36533 13.0475 3.61914 13.7937 3.61914 14.7142C3.61914 15.6346 4.36533 16.3808 5.28581 16.3808Z" fill="white"/>
<path d="M14.7145 6.95247C15.635 6.95247 16.3812 6.20628 16.3812 5.28581C16.3812 4.36533 15.635 3.61914 14.7145 3.61914C13.794 3.61914 13.0479 4.36533 13.0479 5.28581C13.0479 6.20628 13.794 6.95247 14.7145 6.95247Z" fill="white"/>
<path d="M3.33352 11.6675C4.25445 11.6675 5.00102 10.921 5.00102 10C5.00102 9.07909 4.25445 8.33252 3.33352 8.33252C2.41258 8.33252 1.66602 9.07909 1.66602 10C1.66602 10.921 2.41258 11.6675 3.33352 11.6675Z" fill="white"/>
<path d="M16.6667 11.6667C17.5871 11.6667 18.3333 10.9205 18.3333 10C18.3333 9.07957 17.5871 8.33337 16.6667 8.33337C15.7462 8.33337 15 9.07957 15 10C15 10.9205 15.7462 11.6667 16.6667 11.6667Z" fill="white"/>
<path d="M5.28581 6.95333C6.20628 6.95333 6.95247 6.20714 6.95247 5.28666C6.95247 4.36619 6.20628 3.62 5.28581 3.62C4.36533 3.62 3.61914 4.36619 3.61914 5.28666C3.61914 6.20714 4.36533 6.95333 5.28581 6.95333Z" fill="white"/>
<path d="M14.7145 16.3817C15.635 16.3817 16.3812 15.6355 16.3812 14.715C16.3812 13.7945 15.635 13.0483 14.7145 13.0483C13.794 13.0483 13.0479 13.7945 13.0479 14.715C13.0479 15.6355 13.794 16.3817 14.7145 16.3817Z" fill="white"/>
</svg>
