<svg width="28" height="28" viewBox="0 0 28 28" fill="none" xmlns="http://www.w3.org/2000/svg">
<path d="M23.625 4.59375H4.375C3.96889 4.59375 3.57941 4.75508 3.29224 5.04224C3.00508 5.32941 2.84375 5.71889 2.84375 6.125V21.875C2.84375 22.2811 3.00508 22.6706 3.29224 22.9578C3.57941 23.2449 3.96889 23.4062 4.375 23.4062H23.625C24.0311 23.4062 24.4206 23.2449 24.7078 22.9578C24.9949 22.6706 25.1562 22.2811 25.1562 21.875V6.125C25.1562 5.71889 24.9949 5.32941 24.7078 5.04224C24.4206 4.75508 24.0311 4.59375 23.625 4.59375ZM4.375 5.90625H23.625C23.683 5.90625 23.7387 5.9293 23.7797 5.97032C23.8207 6.01134 23.8438 6.06698 23.8438 6.125V18.5391L20.3328 15.0281C20.0442 14.7436 19.6553 14.5841 19.25 14.5841C18.8447 14.5841 18.4558 14.7436 18.1672 15.0281L15.9031 17.2922C15.8837 17.3134 15.86 17.3303 15.8336 17.3419C15.8073 17.3535 15.7788 17.3595 15.75 17.3595C15.7212 17.3595 15.6927 17.3535 15.6664 17.3419C15.64 17.3303 15.6163 17.3134 15.5969 17.2922L10.7078 12.4031C10.4192 12.1186 10.0303 11.9591 9.625 11.9591C9.21974 11.9591 8.83076 12.1186 8.54219 12.4031L4.15625 16.7891V6.125C4.15625 6.06698 4.1793 6.01134 4.22032 5.97032C4.26134 5.9293 4.31698 5.90625 4.375 5.90625ZM23.625 22.0938H4.375C4.31698 22.0938 4.26134 22.0707 4.22032 22.0297C4.1793 21.9887 4.15625 21.933 4.15625 21.875V18.6484L9.47187 13.3328C9.49134 13.3116 9.51501 13.2947 9.54137 13.2831C9.56773 13.2715 9.59621 13.2655 9.625 13.2655C9.65379 13.2655 9.68227 13.2715 9.70863 13.2831C9.73499 13.2947 9.75866 13.3116 9.77813 13.3328L14.6672 18.2219C14.9558 18.5064 15.3447 18.6659 15.75 18.6659C16.1553 18.6659 16.5442 18.5064 16.8328 18.2219L19.0969 15.9578C19.1163 15.9366 19.14 15.9197 19.1664 15.9081C19.1927 15.8965 19.2212 15.8905 19.25 15.8905C19.2788 15.8905 19.3073 15.8965 19.3336 15.9081C19.36 15.9197 19.3837 15.9366 19.4031 15.9578L23.8438 20.3984V21.875C23.8438 21.933 23.8207 21.9887 23.7797 22.0297C23.7387 22.0707 23.683 22.0938 23.625 22.0938ZM16.2859 11.7141C16.1841 11.6122 16.1036 11.4911 16.0491 11.3577C15.9946 11.2244 15.9673 11.0815 15.9688 10.9375C15.9688 10.6474 16.084 10.3692 16.2891 10.1641C16.4942 9.95898 16.7724 9.84375 17.0625 9.84375C17.3526 9.84375 17.6308 9.95898 17.8359 10.1641C18.041 10.3692 18.1562 10.6474 18.1562 10.9375C18.1562 11.2276 18.041 11.5058 17.8359 11.7109C17.6308 11.916 17.3526 12.0312 17.0625 12.0312C16.9185 12.0327 16.7756 12.0054 16.6423 11.9509C16.5089 11.8964 16.3878 11.8159 16.2859 11.7141Z" fill="#616B77"/>
</svg>
