<svg width="19" height="19" viewBox="0 0 19 19" fill="none" xmlns="http://www.w3.org/2000/svg">
<path d="M3.16634 15.8334C2.73092 15.8334 2.35831 15.6785 2.04851 15.3687C1.73817 15.0584 1.58301 14.6855 1.58301 14.2501V4.75008C1.58301 4.31466 1.73817 3.94205 2.04851 3.63225C2.35831 3.32191 2.73092 3.16675 3.16634 3.16675H15.833C16.2684 3.16675 16.6413 3.32191 16.9516 3.63225C17.2614 3.94205 17.4163 4.31466 17.4163 4.75008V10.9251C17.0601 10.714 16.6806 10.5556 16.2779 10.4501C15.8758 10.3445 15.4636 10.2917 15.0413 10.2917C13.7219 10.2917 12.6004 10.7536 11.6768 11.6772C10.7531 12.6008 10.2913 13.7223 10.2913 15.0417V15.8334H3.16634ZM9.49967 8.70842L4.19551 5.38341C3.94481 5.23828 3.71048 5.23485 3.49251 5.37312C3.27506 5.51193 3.16634 5.70668 3.16634 5.95737C3.16634 6.08932 3.19273 6.20147 3.24551 6.29383C3.29829 6.38619 3.37745 6.46536 3.48301 6.53133L9.08405 10.0345C9.21599 10.1136 9.35454 10.1532 9.49967 10.1532C9.64481 10.1532 9.78335 10.1136 9.9153 10.0345L15.5163 6.53133C15.6219 6.46536 15.7011 6.38619 15.7538 6.29383C15.8066 6.20147 15.833 6.08932 15.833 5.95737C15.833 5.71987 15.7275 5.52855 15.5163 5.38341C15.3052 5.23828 15.0677 5.23828 14.8038 5.38341L9.49967 8.70842ZM15.1799 15.8334H12.6663C12.442 15.8334 12.2541 15.7574 12.1027 15.6054C11.9507 15.4539 11.8747 15.2661 11.8747 15.0417C11.8747 14.8174 11.9507 14.6296 12.1027 14.4781C12.2541 14.3261 12.442 14.2501 12.6663 14.2501H15.1799L14.4674 13.5376C14.309 13.3792 14.2333 13.1945 14.2402 12.9834C14.2465 12.7723 14.3288 12.5876 14.4872 12.4292C14.6455 12.2841 14.8302 12.2081 15.0413 12.2012C15.2525 12.1949 15.4372 12.2709 15.5955 12.4292L17.6538 14.4876C17.8122 14.6459 17.8913 14.8306 17.8913 15.0417C17.8913 15.2529 17.8122 15.4376 17.6538 15.5959L15.5955 17.6542C15.4504 17.7994 15.2691 17.8751 15.0516 17.8815C14.8337 17.8883 14.6455 17.8126 14.4872 17.6542C14.342 17.5091 14.2695 17.3244 14.2695 17.1001C14.2695 16.8758 14.342 16.6911 14.4872 16.5459L15.1799 15.8334Z" fill="#7ED997"/>
</svg>
