
<svg width="31" height="31" viewBox="0 0 31 31" fill="none" xmlns="http://www.w3.org/2000/svg">
<path d="M28.4154 15.5H20.6654L18.082 19.375H12.9154L10.332 15.5H2.58203" stroke="#616B77" stroke-width="2" stroke-linecap="round" stroke-linejoin="round"/>
<path d="M7.03828 6.60038L2.58203 15.5V23.25C2.58203 23.9351 2.8542 24.5922 3.33867 25.0767C3.82314 25.5611 4.48022 25.8333 5.16536 25.8333H25.832C26.5172 25.8333 27.1743 25.5611 27.6587 25.0767C28.1432 24.5922 28.4154 23.9351 28.4154 23.25V15.5L23.9591 6.60038C23.7452 6.16998 23.4156 5.80777 23.0071 5.55449C22.5987 5.3012 22.1276 5.16688 21.647 5.16663H9.35036C8.86976 5.16688 8.39875 5.3012 7.9903 5.55449C7.58185 5.80777 7.25215 6.16998 7.03828 6.60038V6.60038Z" stroke="#616B77" stroke-width="2" stroke-linecap="round" stroke-linejoin="round"/>
</svg>
