<svg width="30" height="30" viewBox="0 0 30 30" fill="none" xmlns="http://www.w3.org/2000/svg">
<path d="M14.6666 20.2667L12.6166 22.3C11.9928 22.9158 11.1515 23.2611 10.2749 23.2611C9.39839 23.2611 8.55711 22.9158 7.93328 22.3C7.62916 21.9966 7.38788 21.6361 7.22325 21.2393C7.05862 20.8425 6.97388 20.4171 6.97388 19.9875C6.97388 19.5579 7.05862 19.1325 7.22325 18.7357C7.38788 18.3389 7.62916 17.9784 7.93328 17.675L11.8416 13.8C12.4654 13.1842 13.3067 12.8389 14.1833 12.8389C15.0598 12.8389 15.9011 13.1842 16.5249 13.8C16.922 14.1944 17.2092 14.6856 17.3583 15.225C17.4403 15.1573 17.5156 15.082 17.5833 15L18.6583 13.9333C18.4176 13.4323 18.0935 12.9758 17.6999 12.5833C16.7638 11.6571 15.5001 11.1376 14.1833 11.1376C12.8664 11.1376 11.6027 11.6571 10.6666 12.5833L6.74995 16.4917C6.28861 16.9495 5.92246 17.4941 5.67258 18.0941C5.42271 18.694 5.29407 19.3376 5.29407 19.9875C5.29407 20.6374 5.42271 21.281 5.67258 21.8809C5.92246 22.4809 6.28861 23.0255 6.74995 23.4833C7.68606 24.4095 8.94975 24.929 10.2666 24.929C11.5835 24.929 12.8472 24.4095 13.7833 23.4833L16.8249 20.4667H16.4083C15.8215 20.477 15.2358 20.4097 14.6666 20.2667Z" fill="#616B77"/>
<path d="M23.8417 6.51668C22.9056 5.59049 21.6419 5.07098 20.325 5.07098C19.0082 5.07098 17.7445 5.59049 16.8084 6.51668L13.7667 9.53335H14.175C14.7661 9.5332 15.3546 9.61167 15.925 9.76668L17.975 7.73335C18.5989 7.11757 19.4402 6.7723 20.3167 6.7723C21.1933 6.7723 22.0346 7.11757 22.6584 7.73335C22.9625 8.03678 23.2038 8.39723 23.3684 8.79404C23.533 9.19085 23.6178 9.61624 23.6178 10.0459C23.6178 10.4755 23.533 10.9008 23.3684 11.2977C23.2038 11.6945 22.9625 12.0549 22.6584 12.3584L18.75 16.2334C18.1262 16.8491 17.2849 17.1944 16.4084 17.1944C15.5318 17.1944 14.6905 16.8491 14.0667 16.2334C13.6697 15.8389 13.3825 15.3478 13.2334 14.8084C13.15 14.865 13.0719 14.9292 13 15L11.925 16.0667C12.1657 16.5677 12.4898 17.0242 12.8834 17.4167C13.8195 18.3429 15.0832 18.8624 16.4 18.8624C17.7169 18.8624 18.9806 18.3429 19.9167 17.4167L23.825 13.5417C24.2854 13.0833 24.6507 12.5385 24.8999 11.9386C25.1491 11.3387 25.2774 10.6955 25.2774 10.0459C25.2774 9.39622 25.1491 8.75299 24.8999 8.15308C24.6507 7.55317 24.2854 7.00839 23.825 6.55002L23.8417 6.51668Z" fill="#616B77"/>
</svg>
