<svg width="24" height="24" viewBox="0 0 24 24" fill="none" xmlns="http://www.w3.org/2000/svg">
<path d="M10.503 2.349C10.6163 2.28428 10.7445 2.25024 10.875 2.25024C11.0055 2.25024 11.1337 2.28428 11.247 2.349L18.366 6.417C18.4897 6.4875 18.6045 6.5685 18.711 6.6585L10.875 11.136L3.03975 6.6585C3.14671 6.56743 3.26196 6.48658 3.384 6.417L10.503 2.349ZM19.4618 7.9575C19.4872 8.0925 19.5 8.2305 19.5 8.37V14.625C19.5 15.5201 19.1444 16.3785 18.5115 17.0115C17.8785 17.6444 17.0201 18 16.125 18H5.625C4.72989 18 3.87145 17.6444 3.23851 17.0115C2.60558 16.3785 2.25 15.5201 2.25 14.625V8.37C2.25004 8.23162 2.26284 8.09353 2.28825 7.9575L10.503 12.651C10.6163 12.7157 10.7445 12.7498 10.875 12.7498C11.0055 12.7498 11.1337 12.7157 11.247 12.651L19.4625 7.9575H19.4618ZM5.442 19.1212C5.74989 19.5839 6.16736 19.9632 6.65725 20.2256C7.14714 20.4879 7.69428 20.6251 8.25 20.625H16.875C17.5644 20.625 18.2471 20.4892 18.8841 20.2254C19.521 19.9615 20.0998 19.5748 20.5873 19.0873C21.0748 18.5998 21.4615 18.021 21.7254 17.3841C21.9892 16.7471 22.125 16.0644 22.125 15.375V9.87C22.1249 9.47348 22.0201 9.08402 21.8211 8.74105C21.6221 8.39809 21.336 8.11381 20.9918 7.917L20.6243 7.707V9.84L20.6257 9.87V15.375C20.6257 16.3696 20.2307 17.3234 19.5274 18.0266C18.8241 18.7299 17.8703 19.125 16.8757 19.125H5.625C5.5635 19.125 5.502 19.1235 5.44125 19.1212H5.442Z" fill="#F89665"/>
</svg>
