<svg width="23" height="23" viewBox="0 0 23 23" fill="none" xmlns="http://www.w3.org/2000/svg">
<path d="M17.3712 21.7222C17.0888 21.722 16.813 21.6374 16.5789 21.4795L11.8128 18.285C11.7894 18.2688 11.7615 18.2601 11.733 18.2601C11.7044 18.2601 11.6766 18.2688 11.6531 18.285L6.88699 21.4795C6.64766 21.6393 6.36538 21.7225 6.07763 21.7181C5.78989 21.7137 5.51029 21.6218 5.27597 21.4547C5.04165 21.2877 4.8637 21.0533 4.76575 20.7827C4.66779 20.5121 4.65447 20.2181 4.72755 19.9397L6.29283 14.4197C6.30023 14.392 6.29933 14.3627 6.29025 14.3354C6.28116 14.3082 6.26429 14.2842 6.24172 14.2664L1.73116 10.7206C1.49371 10.5437 1.31758 10.2969 1.22745 10.0149C1.13733 9.73281 1.13774 9.42963 1.22862 9.14783C1.3195 8.86602 1.4963 8.61973 1.73422 8.44347C1.97215 8.26722 2.25927 8.16985 2.55533 8.16502L8.30533 7.94779C8.3336 7.94584 8.3607 7.93576 8.38337 7.91875C8.40605 7.90175 8.42332 7.87856 8.43311 7.85196L10.4137 2.46613C10.5135 2.19309 10.6948 1.95733 10.9331 1.79076C11.1713 1.62418 11.455 1.53485 11.7457 1.53485C12.0365 1.53485 12.3202 1.62418 12.5584 1.79076C12.7967 1.95733 12.978 2.19309 13.0778 2.46613L15.0584 7.85196C15.0682 7.87856 15.0854 7.90175 15.1081 7.91875C15.1308 7.93576 15.1579 7.94584 15.1862 7.94779L20.9362 8.16502C21.2322 8.16985 21.5193 8.26722 21.7573 8.44347C21.9952 8.61973 22.172 8.86602 22.2629 9.14783C22.3538 9.42963 22.3542 9.73281 22.264 10.0149C22.1739 10.2969 21.9978 10.5437 21.7603 10.7206L17.2498 14.2664C17.2265 14.2836 17.2091 14.3075 17.2 14.335C17.1908 14.3624 17.1904 14.392 17.1987 14.4197L18.7639 19.9397C18.8189 20.1515 18.8243 20.373 18.7799 20.5872C18.7354 20.8014 18.6422 21.0024 18.5075 21.1748C18.3729 21.3471 18.2003 21.4862 18.0032 21.5811C17.8062 21.6761 17.5899 21.7243 17.3712 21.7222V21.7222ZM11.7362 16.9817C12.0191 16.9903 12.2929 17.0838 12.522 17.25L17.2881 20.4445C17.3123 20.4628 17.3417 20.4729 17.372 20.4731C17.4024 20.4734 17.432 20.4638 17.4564 20.4458C17.4809 20.4278 17.4988 20.4024 17.5076 20.3734C17.5165 20.3444 17.5156 20.3133 17.5053 20.2847L15.9401 14.7647C15.863 14.494 15.8687 14.2063 15.9564 13.9388C16.044 13.6713 16.2097 13.436 16.432 13.2634L20.9425 9.71752C20.9672 9.70023 20.9856 9.67552 20.9951 9.64699C21.0046 9.61847 21.0047 9.58765 20.9954 9.55905C20.9861 9.53046 20.9679 9.5056 20.9435 9.48812C20.919 9.47064 20.8896 9.46148 20.8595 9.46196L15.1095 9.24474C14.8279 9.23376 14.556 9.13918 14.3285 8.97305C14.1009 8.80692 13.928 8.57677 13.8317 8.31196L11.8512 2.92613C11.8422 2.89753 11.8244 2.87254 11.8003 2.85479C11.7761 2.83704 11.747 2.82747 11.717 2.82747C11.687 2.82747 11.6579 2.83704 11.6337 2.85479C11.6096 2.87254 11.5918 2.89753 11.5828 2.92613L9.62144 8.30557C9.52519 8.57039 9.35226 8.80053 9.12468 8.96666C8.89711 9.13279 8.62521 9.22738 8.34366 9.23835L2.59366 9.45557C2.5636 9.45509 2.53417 9.46426 2.5097 9.48173C2.48523 9.49921 2.46701 9.52407 2.45772 9.55267C2.44843 9.58126 2.44855 9.61208 2.45807 9.64061C2.46759 9.66913 2.486 9.69385 2.51061 9.71113L7.02755 13.2634C7.24921 13.4366 7.41433 13.6719 7.50193 13.9392C7.58953 14.2066 7.59564 14.4939 7.51949 14.7647L5.96061 20.2847C5.9513 20.3124 5.95126 20.3423 5.96048 20.37C5.9697 20.3976 5.98769 20.4215 6.01172 20.4381C6.03486 20.4579 6.06432 20.4687 6.09477 20.4687C6.12523 20.4687 6.15468 20.4579 6.17783 20.4381L10.9439 17.2436C11.1769 17.0891 11.4503 17.0069 11.7298 17.0072L11.7362 16.9817Z" fill="#616B77"/>
</svg>
