<svg width="28" height="28" viewBox="0 0 28 28" fill="none" xmlns="http://www.w3.org/2000/svg">
<path d="M24.5002 22.274V5.726C24.8884 5.58841 25.2155 5.31805 25.4237 4.96268C25.6319 4.60731 25.7078 4.1898 25.638 3.78388C25.5682 3.37797 25.3572 3.00979 25.0423 2.74436C24.7273 2.47894 24.3287 2.33336 23.9168 2.33333C23.1562 2.33333 22.5145 2.82217 22.2742 3.5H5.72618C5.58982 3.1104 5.31979 2.78174 4.96405 2.57239C4.60831 2.36303 4.18988 2.28654 3.78308 2.35648C3.37628 2.42643 3.00743 2.63829 2.74204 2.95444C2.47666 3.27059 2.33191 3.67057 2.33351 4.08333C2.33351 4.844 2.82234 5.48567 3.50018 5.726V22.274C3.22192 22.372 2.97304 22.5389 2.7768 22.7592C2.58055 22.9795 2.44334 23.2459 2.37799 23.5336C2.31263 23.8213 2.32127 24.1208 2.40308 24.4042C2.48489 24.6877 2.63721 24.9458 2.84582 25.1544C3.05442 25.363 3.3125 25.5153 3.59594 25.5971C3.87937 25.6789 4.17893 25.6875 4.46661 25.6222C4.75429 25.5568 5.02071 25.4196 5.24098 25.2234C5.46125 25.0271 5.62818 24.7783 5.72618 24.5H22.2742C22.4105 24.8896 22.6806 25.2183 23.0363 25.4276C23.392 25.637 23.8105 25.7135 24.2173 25.6435C24.6241 25.5736 24.9929 25.3617 25.2583 25.0456C25.5237 24.7294 25.6684 24.3294 25.6668 23.9167C25.6668 23.156 25.178 22.5143 24.5002 22.274ZM23.9168 3.5C23.9936 3.50015 24.0696 3.51542 24.1404 3.54494C24.2113 3.57445 24.2756 3.61764 24.3298 3.67202C24.384 3.72641 24.4269 3.79093 24.4561 3.8619C24.4854 3.93287 24.5003 4.00891 24.5002 4.08567C24.5 4.16242 24.4848 4.2384 24.4552 4.30926C24.4257 4.38011 24.3825 4.44446 24.3282 4.49863C24.2738 4.5528 24.2093 4.59572 24.1383 4.62495C24.0673 4.65419 23.9913 4.66915 23.9145 4.669C23.7595 4.66869 23.6109 4.60681 23.5015 4.49698C23.3922 4.38715 23.3309 4.23835 23.3312 4.08333C23.3315 3.92831 23.3934 3.77977 23.5032 3.67037C23.613 3.56098 23.7618 3.49969 23.9168 3.5V3.5ZM4.08351 3.5C4.16027 3.50015 4.23624 3.51542 4.3071 3.54494C4.37796 3.57445 4.4423 3.61764 4.49647 3.67202C4.55064 3.72641 4.59356 3.79093 4.6228 3.8619C4.65203 3.93287 4.667 4.00891 4.66684 4.08567C4.66669 4.16242 4.65142 4.2384 4.6219 4.30926C4.59239 4.38011 4.54921 4.44446 4.49482 4.49863C4.44044 4.5528 4.37592 4.59572 4.30494 4.62495C4.23397 4.65419 4.15793 4.66915 4.08118 4.669C3.92616 4.66869 3.77761 4.60681 3.66821 4.49698C3.55882 4.38715 3.49753 4.23835 3.49784 4.08333C3.49815 3.92831 3.56003 3.77977 3.66986 3.67037C3.7797 3.56098 3.92849 3.49969 4.08351 3.5V3.5ZM4.08351 24.5C3.9288 24.5 3.78043 24.4385 3.67103 24.3291C3.56163 24.2198 3.50018 24.0714 3.50018 23.9167C3.50018 23.762 3.56163 23.6136 3.67103 23.5042C3.78043 23.3948 3.9288 23.3333 4.08351 23.3333C4.23822 23.3333 4.38659 23.3948 4.49599 23.5042C4.60538 23.6136 4.66684 23.762 4.66684 23.9167C4.66684 24.0714 4.60538 24.2198 4.49599 24.3291C4.38659 24.4385 4.23822 24.5 4.08351 24.5ZM22.2718 23.3403L22.2672 23.3333H5.73318L5.72851 23.3403C5.64193 23.0935 5.50093 22.8692 5.31594 22.6842C5.13095 22.4993 4.90671 22.3582 4.65984 22.2717L4.66684 22.267V5.733L4.65984 5.72833C5.15918 5.55333 5.55234 5.159 5.72851 4.65967L5.73318 4.66667H22.2672L22.2718 4.65967C22.4468 5.16017 22.84 5.55333 23.3405 5.72833L23.3335 5.733V22.267L23.3405 22.2717C22.84 22.4467 22.4468 22.8398 22.2718 23.3403ZM23.9168 24.5C23.7621 24.5 23.6138 24.4385 23.5044 24.3291C23.395 24.2198 23.3335 24.0714 23.3335 23.9167C23.3335 23.762 23.395 23.6136 23.5044 23.5042C23.6138 23.3948 23.7621 23.3333 23.9168 23.3333C24.0716 23.3333 24.2199 23.3948 24.3293 23.5042C24.4387 23.6136 24.5002 23.762 24.5002 23.9167C24.5002 24.0714 24.4387 24.2198 24.3293 24.3291C24.2199 24.4385 24.0716 24.5 23.9168 24.5ZM19.2502 11.6667H16.3335V8.75C16.3335 8.59529 16.2721 8.44692 16.1627 8.33752C16.0533 8.22813 15.9049 8.16667 15.7502 8.16667H8.75018C8.59547 8.16667 8.44709 8.22813 8.3377 8.33752C8.2283 8.44692 8.16684 8.59529 8.16684 8.75V15.75C8.16684 15.9047 8.2283 16.0531 8.3377 16.1625C8.44709 16.2719 8.59547 16.3333 8.75018 16.3333H11.6668V19.25C11.6668 19.4047 11.7283 19.5531 11.8377 19.6625C11.9471 19.7719 12.0955 19.8333 12.2502 19.8333H19.2502C19.4049 19.8333 19.5533 19.7719 19.6627 19.6625C19.7721 19.5531 19.8335 19.4047 19.8335 19.25V12.25C19.8335 12.0953 19.7721 11.9469 19.6627 11.8375C19.5533 11.7281 19.4049 11.6667 19.2502 11.6667ZM12.2502 11.6667C12.0955 11.6667 11.9471 11.7281 11.8377 11.8375C11.7283 11.9469 11.6668 12.0953 11.6668 12.25V15.1667H9.33351V9.33333H15.1668V11.6667H12.2502ZM18.6668 18.6667H12.8335V12.8333H18.6668V18.6667Z" fill="#616B77"/>
</svg>
