<svg width="31" height="31" viewBox="0 0 31 31" fill="none" xmlns="http://www.w3.org/2000/svg">
<path d="M10.795 5.24875L7 13V19.75C7 20.3467 7.23178 20.919 7.64436 21.341C8.05695 21.7629 8.61652 22 9.2 22H26.8C27.3835 22 27.9431 21.7629 28.3556 21.341C28.7682 20.919 29 20.3467 29 19.75V13L25.205 5.24875C25.0229 4.87389 24.7421 4.55842 24.3943 4.33781C24.0464 4.11721 23.6453 4.00022 23.236 4H12.764C12.3547 4.00022 11.9536 4.11721 11.6057 4.33781C11.2579 4.55842 10.9771 4.87389 10.795 5.24875V5.24875Z" stroke="#616B77" stroke-width="2" stroke-linecap="round" stroke-linejoin="round"/>
<path d="M6.795 9.24875L3 17V23.75C3 24.3467 3.23178 24.919 3.64436 25.341C4.05695 25.7629 4.61652 26 5.2 26H22.8C23.3835 26 23.9431 25.7629 24.3556 25.341C24.7682 24.919 25 24.3467 25 23.75V17L21.205 9.24875C21.0229 8.87389 20.7421 8.55842 20.3943 8.33781C20.0464 8.11721 19.6453 8.00022 19.236 8H8.764C8.35471 8.00022 7.95359 8.11721 7.60575 8.33781C7.25791 8.55842 6.97713 8.87389 6.795 9.24875V9.24875Z" fill="white" stroke="#616B77" stroke-width="2" stroke-linecap="round" stroke-linejoin="round"/>
<path d="M25 17H18.4L16.2 20H11.8L9.6 17H3" stroke="#616B77" stroke-width="2" stroke-linecap="round" stroke-linejoin="round"/>
</svg>
