<svg width="30" height="22" viewBox="0 0 30 22" fill="none" xmlns="http://www.w3.org/2000/svg">
<path d="M14.7612 2.21051C14.8015 2.18924 14.8455 2.18045 14.8894 2.18496C14.9332 2.18947 14.9754 2.20713 15.0121 2.23632C15.0487 2.2655 15.0787 2.30528 15.0992 2.35199C15.1197 2.3987 15.1301 2.45084 15.1294 2.50363V5.02582C15.1294 5.3159 15.2255 5.5941 15.3964 5.79922C15.5673 6.00434 15.7992 6.11957 16.0409 6.11957C17.2568 6.11957 19.7104 6.13051 22.0565 7.9177C23.8503 9.2827 25.6841 11.7677 26.787 16.3965C24.9276 14.2461 22.8039 13.0802 20.9445 12.4611C19.8017 12.0823 18.6271 11.8578 17.4427 11.7918C16.9579 11.7662 16.4723 11.7721 15.988 11.8093H15.9643L15.9552 11.8115H15.9534L16.0409 12.9008L15.9497 11.8115C15.7248 11.8386 15.5162 11.9651 15.3646 12.1664C15.213 12.3677 15.1292 12.6295 15.1294 12.9008V15.423C15.1294 15.6593 14.9289 15.808 14.7612 15.7161L7.4987 9.3002C7.47405 9.27825 7.4485 9.25781 7.42214 9.23895C7.3825 9.21037 7.3497 9.16996 7.32693 9.12166C7.30416 9.07336 7.2922 9.01882 7.2922 8.96332C7.2922 8.90783 7.30416 8.85328 7.32693 8.80498C7.3497 8.75669 7.3825 8.71628 7.42214 8.6877C7.44851 8.66885 7.47406 8.64841 7.4987 8.62645L14.7612 2.21051V2.21051ZM16.9523 13.964C17.0763 13.964 17.213 13.9705 17.3589 13.9771C18.15 14.0208 19.2438 14.1652 20.4578 14.5699C22.875 15.3749 25.737 17.1993 27.6401 21.3074C27.743 21.5291 27.907 21.701 28.104 21.7936C28.3009 21.8862 28.5186 21.8937 28.7196 21.8148C28.9207 21.736 29.0926 21.5756 29.2059 21.3613C29.3193 21.147 29.367 20.8921 29.3409 20.6402C28.4951 12.5246 25.9029 8.25457 23.0336 6.07145C20.7641 4.34332 18.4271 4.01082 16.9523 3.94738V2.50363C16.9525 2.05316 16.8514 1.61098 16.6595 1.22376C16.4677 0.836534 16.1923 0.518624 15.8625 0.303573C15.5326 0.0885212 15.1605 -0.0156976 14.7854 0.0019135C14.4103 0.0195246 14.0461 0.158312 13.7313 0.403632L6.45053 6.83489C6.14953 7.06035 5.90129 7.37403 5.72919 7.74638C5.5571 8.11874 5.4668 8.53753 5.4668 8.96332C5.4668 9.38912 5.5571 9.80791 5.72919 10.1803C5.90129 10.5526 6.14953 10.8663 6.45053 11.0918L13.7313 17.523C14.0461 17.7683 14.4103 17.9071 14.7854 17.9247C15.1605 17.9423 15.5326 17.8381 15.8625 17.6231C16.1923 17.408 16.4677 17.0901 16.6595 16.7029C16.8514 16.3157 16.9525 15.8735 16.9523 15.423V13.964V13.964Z" fill="#616B77"/>
<path d="M9.53685 0.635528C9.46585 0.519614 9.37649 0.421647 9.27388 0.347238C9.17128 0.27283 9.05745 0.223443 8.93892 0.201904C8.82039 0.180365 8.69948 0.187098 8.58312 0.221717C8.46676 0.256336 8.35723 0.318161 8.26081 0.403652L0.983728 6.8349C0.682728 7.06037 0.434494 7.37404 0.262397 7.7464C0.0902994 8.11876 0 8.53755 0 8.96334C0 9.38913 0.0902994 9.80792 0.262397 10.1803C0.434494 10.5526 0.682728 10.8663 0.983728 11.0918L8.26446 17.523C8.36063 17.6113 8.4705 17.6757 8.58764 17.7124C8.70478 17.7492 8.82685 17.7576 8.94672 17.7371C9.06659 17.7166 9.18185 17.6677 9.28579 17.5931C9.38972 17.5186 9.48023 17.42 9.55205 17.303C9.62386 17.186 9.67553 17.053 9.70404 16.9118C9.73254 16.7706 9.73732 16.624 9.71809 16.4805C9.69885 16.3371 9.656 16.1997 9.59201 16.0763C9.52803 15.953 9.44421 15.8461 9.34545 15.7621L2.03008 9.30022C2.00543 9.27827 1.97988 9.25783 1.95352 9.23897C1.91388 9.21038 1.88108 9.16998 1.85831 9.12168C1.83554 9.07338 1.82358 9.01883 1.82358 8.96334C1.82358 8.90785 1.83554 8.8533 1.85831 8.805C1.88108 8.7567 1.91388 8.7163 1.95352 8.68772C1.97988 8.66886 2.00544 8.64842 2.03008 8.62647L9.34362 2.16459C9.53819 1.99254 9.66784 1.73481 9.70408 1.44807C9.74031 1.16133 9.68016 0.86906 9.53685 0.635528V0.635528Z" fill="#616B77"/>
</svg>
