 
<svg version="1.0" xmlns="http://www.w3.org/2000/svg"
 width="24" height="24" viewBox="0 0 512.000000 512.000000"
 preserveAspectRatio="xMidYMid meet">

<g fill="#fff" transform="translate(0.000000,512.000000) scale(0.100000,-0.100000)"
  stroke="none">
<path d="M2445 5105 c-98 -25 -166 -66 -240 -144 -39 -41 -88 -121 -98 -163
-4 -15 -10 -19 -24 -13 -10 4 -47 15 -83 23 -197 46 -423 -64 -516 -252 -44
-91 -54 -154 -54 -355 l0 -163 -22 6 c-128 38 -249 28 -363 -28 -134 -66 -233
-201 -256 -346 -6 -43 -9 -423 -6 -1075 3 -1090 2 -1070 58 -1275 169 -618
640 -1090 1259 -1259 275 -75 635 -75 910 0 319 87 594 250 820 485 217 226
356 472 440 776 53 194 53 197 57 1042 3 512 1 812 -6 855 -23 147 -124 284
-258 348 -115 55 -234 64 -360 27 l-23 -6 0 388 c0 214 -5 416 -10 449 -33
202 -203 362 -413 388 -79 10 -166 -1 -230 -28 -14 -6 -20 -2 -24 13 -19 75
-106 186 -188 241 -110 74 -246 98 -370 66z m212 -321 c20 -16 44 -45 54 -64
18 -33 19 -82 19 -1107 l0 -1073 150 0 150 0 2 934 3 934 30 38 c45 55 89 76
153 71 60 -4 113 -40 143 -97 18 -33 19 -82 19 -1102 l0 -1067 -57 -11 c-220
-43 -424 -151 -584 -310 -190 -189 -312 -449 -326 -698 l-6 -103 149 3 149 3
6 75 c24 284 193 530 455 661 126 63 243 89 401 89 l112 0 3 623 3 622 23 32
c41 58 80 78 149 78 53 0 66 -4 99 -30 79 -65 74 -8 74 -845 0 -773 -4 -860
-45 -1021 -131 -522 -542 -936 -1060 -1070 -506 -131 -1040 15 -1411 385 -185
186 -328 435 -388 681 -43 175 -46 234 -46 1250 0 926 1 972 19 1005 10 19 35
48 55 65 33 26 46 30 101 30 55 0 68 -4 101 -30 78 -63 74 -33 74 -647 l0
-548 150 0 150 0 2 934 3 934 30 38 c45 55 89 76 153 71 60 -4 113 -40 143
-97 18 -33 19 -78 19 -957 l0 -923 150 0 150 0 2 1084 3 1084 30 38 c45 55 89
76 153 71 39 -3 61 -11 89 -33z"/>
</g>
</svg>
