<svg width="25" height="26" viewBox="0 0 25 26" fill="none" xmlns="http://www.w3.org/2000/svg">
<path d="M15.026 4.3693C15.3085 4.07983 15.6456 3.84931 16.0179 3.6911C16.3901 3.53288 16.79 3.45013 17.1945 3.44763C17.5989 3.44513 17.9999 3.52293 18.374 3.67653C18.7482 3.83012 19.0881 4.05646 19.3742 4.34241C19.6602 4.62837 19.8866 4.96825 20.0403 5.34237C20.194 5.71648 20.272 6.11738 20.2696 6.52183C20.2672 6.92628 20.1846 7.32624 20.0265 7.69852C19.8683 8.07079 19.6379 8.40798 19.3485 8.69055L17.7585 10.2793L17.866 10.3868C18.0983 10.619 18.2825 10.8946 18.4082 11.198C18.5339 11.5014 18.5986 11.8265 18.5986 12.1549C18.5986 12.4833 18.5339 12.8085 18.4082 13.1119C18.2825 13.4152 18.0983 13.6909 17.866 13.923L16.066 15.7218C15.9482 15.8356 15.7903 15.8986 15.6264 15.8972C15.4625 15.8958 15.3058 15.8301 15.1899 15.7142C15.074 15.5983 15.0083 15.4415 15.0069 15.2777C15.0054 15.1138 15.0684 14.9559 15.1823 14.838L16.9823 13.038C17.2166 12.8036 17.3483 12.4858 17.3483 12.1543C17.3483 11.8228 17.2166 11.505 16.9823 11.2705L16.8748 11.163L8.56729 19.4718C8.48686 19.5518 8.38618 19.6084 8.27604 19.6355L3.27604 20.8855C3.16746 20.9125 3.05364 20.9098 2.94644 20.8778C2.83925 20.8458 2.74262 20.7856 2.66663 20.7035C2.59065 20.6214 2.5381 20.5203 2.51447 20.411C2.49084 20.3016 2.49699 20.188 2.53229 20.0818L4.09479 15.3943C4.12526 15.3025 4.17661 15.2191 4.24479 15.1505L15.0273 4.3693H15.026ZM18.4635 5.25305C18.1249 4.9149 17.6659 4.72497 17.1873 4.72497C16.7087 4.72497 16.2497 4.9149 15.911 5.25305L5.23354 15.9293L4.07729 19.3968L7.80479 18.4655L18.4635 7.8068C18.8021 7.46809 18.9922 7.0088 18.9922 6.52992C18.9922 6.05104 18.8021 5.59176 18.4635 5.25305ZM4.02104 21.988L4.08479 22.0355C5.01354 22.7105 6.38979 23.4043 8.12479 23.4043C9.05354 23.4043 9.90479 23.0793 10.661 22.6493C11.4148 22.2193 12.1148 21.6618 12.7373 21.1555L12.8835 21.0368C13.4635 20.5643 13.961 20.1605 14.4185 19.8905C14.9223 19.593 15.2235 19.5555 15.4273 19.623C15.7585 19.733 15.9473 19.9893 16.276 21.0843C16.3848 21.4493 16.5798 21.8468 16.8648 22.168C17.151 22.4893 17.576 22.7805 18.1248 22.7805C18.7173 22.7805 19.3035 22.4943 19.756 22.228C20.0548 22.0518 20.3748 21.8305 20.6348 21.653C20.7635 21.5655 20.876 21.4868 20.9648 21.428C21.2998 21.2118 21.5823 21.0718 21.776 20.9868C21.8723 20.9443 21.946 20.9155 21.9935 20.8993L22.0435 20.8818L22.051 20.8793C22.2102 20.8327 22.3443 20.7248 22.4239 20.5794C22.5034 20.4339 22.522 20.2628 22.4754 20.1037C22.4288 19.9445 22.3209 19.8104 22.1755 19.7308C22.03 19.6513 21.8589 19.6327 21.6998 19.6793H21.6985L21.6948 19.6818L21.686 19.6843L21.6598 19.693L21.5723 19.7218C21.4709 19.7582 21.3708 19.7982 21.2723 19.8418C20.9292 19.9942 20.599 20.174 20.2848 20.3793C20.1385 20.4755 19.9973 20.5718 19.8573 20.6693C19.618 20.839 19.3725 20.9995 19.121 21.1505C18.6948 21.403 18.3585 21.5293 18.1248 21.5293C18.0498 21.5293 17.9373 21.4918 17.7998 21.3368C17.6495 21.1576 17.5383 20.949 17.4735 20.7243C17.1735 19.7243 16.8485 18.7793 15.8235 18.4368C15.0885 18.1918 14.3735 18.4655 13.7835 18.813C13.2398 19.1343 12.6685 19.6005 12.1123 20.053L11.9498 20.1855C11.3223 20.6943 10.6948 21.1905 10.0423 21.563C9.39229 21.933 8.75854 22.1543 8.12479 22.1543C7.19229 22.1543 6.37979 21.9043 5.70729 21.5668L4.02104 21.988ZM21.8748 20.2793L21.6998 19.6793L21.8748 20.2793Z" fill="#616B77"/>
</svg>
