<svg width="19" height="19" viewBox="0 0 19 19" fill="none" xmlns="http://www.w3.org/2000/svg">
<path d="M10.1451 9.6559L4.18232 10.6494C4.11376 10.6609 4.04943 10.6902 3.99579 10.7344C3.94214 10.7786 3.90108 10.8361 3.87673 10.9012L1.82077 16.4096C1.62444 16.9163 2.15407 17.3992 2.64015 17.1554L16.8901 10.0304C16.9886 9.981 17.0715 9.9052 17.1293 9.81146C17.1872 9.71771 17.2179 9.60972 17.2179 9.49955C17.2179 9.38938 17.1872 9.28138 17.1293 9.18764C17.0715 9.09389 16.9886 9.0181 16.8901 8.96874L2.64015 1.84373C2.15407 1.60069 1.62444 2.08361 1.82077 2.58948L3.87752 8.0979C3.90187 8.163 3.94294 8.22054 3.99658 8.26473C4.05022 8.30892 4.11455 8.33821 4.18311 8.34965L10.1459 9.34319C10.1831 9.34913 10.217 9.36813 10.2414 9.39679C10.2659 9.42545 10.2793 9.46188 10.2793 9.49955C10.2793 9.53721 10.2659 9.57365 10.2414 9.6023C10.217 9.63096 10.1831 9.64996 10.1459 9.6559H10.1451Z" fill="#647AF7"/>
</svg>
