<svg width="24" height="25" viewBox="0 0 24 25" fill="none" xmlns="http://www.w3.org/2000/svg">
<path d="M8.45599 14.64C8.53655 14.5791 8.62858 14.5351 8.72656 14.5106C8.82454 14.4861 8.92646 14.4817 9.02619 14.4976C9.12592 14.5135 9.22143 14.5493 9.30697 14.603C9.39251 14.6567 9.46633 14.7271 9.52399 14.81C9.69378 14.9968 9.88588 15.1621 10.096 15.302C10.6599 15.6763 11.3232 15.8728 12 15.866C12.855 15.866 13.487 15.583 13.904 15.304C14.1141 15.1641 14.3062 14.9988 14.476 14.812L14.497 14.786C14.617 14.6273 14.7952 14.5227 14.9923 14.4953C15.1894 14.4679 15.3893 14.52 15.548 14.64C15.7067 14.76 15.8113 14.9382 15.8387 15.1353C15.866 15.3324 15.814 15.5323 15.694 15.691L15.667 15.725C15.654 15.741 15.637 15.763 15.615 15.788C15.571 15.838 15.51 15.907 15.431 15.986C15.2184 16.197 14.9856 16.3866 14.736 16.552C13.9255 17.09 12.9727 17.3734 12 17.366C11.0272 17.3734 10.0745 17.09 9.26399 16.552C9.01434 16.3866 8.78155 16.197 8.56899 15.986C8.48568 15.9033 8.40689 15.8162 8.33299 15.725C8.07399 15.393 8.10999 14.901 8.45599 14.641V14.64Z" fill="#616B77"/>
<path fill-rule="evenodd" clip-rule="evenodd" d="M12 1.146C5.925 1.146 1 6.071 1 12.146C1 18.221 5.925 23.146 12 23.146C18.075 23.146 23 18.221 23 12.146C23 6.071 18.075 1.146 12 1.146ZM2.5 12.146C2.5 9.62644 3.50089 7.21008 5.28249 5.42848C7.06408 3.64689 9.48044 2.646 12 2.646C14.5196 2.646 16.9359 3.64689 18.7175 5.42848C20.4991 7.21008 21.5 9.62644 21.5 12.146C21.5 14.6656 20.4991 17.0819 18.7175 18.8635C16.9359 20.6451 14.5196 21.646 12 21.646C9.48044 21.646 7.06408 20.6451 5.28249 18.8635C3.50089 17.0819 2.5 14.6656 2.5 12.146Z" fill="#616B77"/>
<path d="M9 10.896C9 11.2275 8.8683 11.5455 8.63388 11.7799C8.39946 12.0143 8.08152 12.146 7.75 12.146C7.41848 12.146 7.10054 12.0143 6.86612 11.7799C6.6317 11.5455 6.5 11.2275 6.5 10.896C6.5 10.5645 6.6317 10.2465 6.86612 10.0121C7.10054 9.77769 7.41848 9.646 7.75 9.646C8.08152 9.646 8.39946 9.77769 8.63388 10.0121C8.8683 10.2465 9 10.5645 9 10.896ZM16.25 12.146C16.5815 12.146 16.8995 12.0143 17.1339 11.7799C17.3683 11.5455 17.5 11.2275 17.5 10.896C17.5 10.5645 17.3683 10.2465 17.1339 10.0121C16.8995 9.77769 16.5815 9.646 16.25 9.646C15.9185 9.646 15.6005 9.77769 15.3661 10.0121C15.1317 10.2465 15 10.5645 15 10.896C15 11.2275 15.1317 11.5455 15.3661 11.7799C15.6005 12.0143 15.9185 12.146 16.25 12.146Z" fill="#616B77"/>
</svg>
