<svg width="21" height="21" viewBox="0 0 21 21" fill="none" xmlns="http://www.w3.org/2000/svg">
<path d="M10.5003 1.45831C5.35533 1.45831 1.16699 5.12165 1.16699 9.62498C1.16699 14.1283 5.35533 17.7916 10.5003 17.7916C11.4629 17.7905 12.4208 17.6571 13.347 17.395L16.5728 19.4483C16.6609 19.5048 16.7625 19.5366 16.8671 19.5403C16.9717 19.544 17.0753 19.5196 17.1672 19.4694C17.259 19.4193 17.3357 19.3455 17.3892 19.2555C17.4427 19.1656 17.471 19.0629 17.4712 18.9583V15.0325C18.2011 14.3323 18.7835 13.4932 19.1842 12.5645C19.5849 11.6358 19.7958 10.6364 19.8045 9.62498C19.8337 5.12165 15.6453 1.45831 10.5003 1.45831ZM16.5028 14.3558C16.4442 14.4102 16.3973 14.4761 16.3652 14.5493C16.3331 14.6226 16.3164 14.7017 16.3162 14.7816V17.8966L13.7612 16.2691C13.6899 16.2241 13.6097 16.195 13.5261 16.184C13.4425 16.1729 13.3575 16.18 13.277 16.205C12.3779 16.4842 11.4418 16.6258 10.5003 16.625C5.99699 16.625 2.33366 13.4866 2.33366 9.62498C2.33366 5.76331 5.99699 2.62498 10.5003 2.62498C15.0037 2.62498 18.667 5.76331 18.667 9.62498C18.6537 10.5204 18.4545 11.4034 18.0819 12.2178C17.7094 13.0321 17.1716 13.7602 16.5028 14.3558Z" fill="#616B77"/>
<path d="M10.5004 12.0342C10.6552 12.0342 10.8035 11.9727 10.9129 11.8633C11.0223 11.7539 11.0838 11.6056 11.0838 11.4508V4.94668C11.0838 4.79197 11.0223 4.64359 10.9129 4.5342C10.8035 4.4248 10.6552 4.36334 10.5004 4.36334C10.3457 4.36334 10.1974 4.4248 10.088 4.5342C9.97857 4.64359 9.91711 4.79197 9.91711 4.94668V11.4392C9.91556 11.5168 9.9295 11.5939 9.95812 11.666C9.98674 11.7381 10.0295 11.8038 10.0838 11.8592C10.1381 11.9146 10.2029 11.9586 10.2745 11.9887C10.346 12.0187 10.4228 12.0342 10.5004 12.0342V12.0342Z" fill="#616B77"/>
<path d="M10.5004 14.7992C10.9289 14.7992 11.2763 14.4518 11.2763 14.0233C11.2763 13.5949 10.9289 13.2475 10.5004 13.2475C10.072 13.2475 9.72461 13.5949 9.72461 14.0233C9.72461 14.4518 10.072 14.7992 10.5004 14.7992Z" fill="#616B77"/>
</svg>
