<svg width="45" height="45" viewBox="0 0 45 45" fill="none" xmlns="http://www.w3.org/2000/svg">
<circle cx="22.5" cy="22.5" r="22.5" fill="#F89665"/>
<path d="M30.3125 13.6875V16.8125H14.6875V13.6875H30.3125ZM30.3125 12.125H14.6875C14.2731 12.125 13.8757 12.2896 13.5826 12.5826C13.2896 12.8757 13.125 13.2731 13.125 13.6875V16.8125C13.125 17.2269 13.2896 17.6243 13.5826 17.9174C13.8757 18.2104 14.2731 18.375 14.6875 18.375H30.3125C30.7269 18.375 31.1243 18.2104 31.4174 17.9174C31.7104 17.6243 31.875 17.2269 31.875 16.8125V13.6875C31.875 13.2731 31.7104 12.8757 31.4174 12.5826C31.1243 12.2896 30.7269 12.125 30.3125 12.125ZM17.8125 21.5V29.3125H14.6875V21.5H17.8125ZM17.8125 19.9375H14.6875C14.2731 19.9375 13.8757 20.1021 13.5826 20.3951C13.2896 20.6882 13.125 21.0856 13.125 21.5V29.3125C13.125 29.7269 13.2896 30.1243 13.5826 30.4174C13.8757 30.7104 14.2731 30.875 14.6875 30.875H17.8125C18.2269 30.875 18.6243 30.7104 18.9174 30.4174C19.2104 30.1243 19.375 29.7269 19.375 29.3125V21.5C19.375 21.0856 19.2104 20.6882 18.9174 20.3951C18.6243 20.1021 18.2269 19.9375 17.8125 19.9375ZM30.3125 23.0625V30.875H22.5V21.5H30.3125M30.3125 19.9375H22.5C22.0856 19.9375 21.6882 20.1021 21.3951 20.3951C21.1021 20.6882 20.9375 21.0856 20.9375 21.5V29.3125C20.9375 29.7269 21.1021 30.1243 21.3951 30.4174C21.6882 30.7104 22.0856 30.875 22.5 30.875H30.3125C30.7269 30.875 31.1243 30.7104 31.4174 30.4174C31.7104 30.1243 31.875 29.7269 31.875 29.3125V21.5C31.875 21.0856 31.7104 20.6882 31.4174 20.3951C31.1243 20.1021 30.7269 19.9375 30.3125 19.9375Z" fill="white"/>
</svg>
