<svg width="25" height="25" viewBox="0 0 25 25" fill="none" xmlns="http://www.w3.org/2000/svg">
<path d="M12.5 21.875C14.572 21.875 16.5591 21.0519 18.0243 19.5868C19.4894 18.1216 20.3125 16.1345 20.3125 14.0625C20.3125 11.9905 19.4894 10.0034 18.0243 8.53823C16.5591 7.0731 14.572 6.25 12.5 6.25C10.428 6.25 8.44086 7.0731 6.97573 8.53823C5.5106 10.0034 4.6875 11.9905 4.6875 14.0625C4.6875 16.1345 5.5106 18.1216 6.97573 19.5868C8.44086 21.0519 10.428 21.875 12.5 21.875V21.875ZM12.5 23.4375C10.0136 23.4375 7.62903 22.4498 5.87087 20.6916C4.11272 18.9335 3.125 16.5489 3.125 14.0625C3.125 11.5761 4.11272 9.19153 5.87087 7.43337C7.62903 5.67522 10.0136 4.6875 12.5 4.6875C14.9864 4.6875 17.371 5.67522 19.1291 7.43337C20.8873 9.19153 21.875 11.5761 21.875 14.0625C21.875 16.5489 20.8873 18.9335 19.1291 20.6916C17.371 22.4498 14.9864 23.4375 12.5 23.4375Z" fill="#616B77"/>
<path d="M12.4998 7.8125C12.707 7.8125 12.9057 7.89481 13.0522 8.04132C13.1987 8.18784 13.2811 8.38655 13.2811 8.59375L13.2686 14.0625C13.2686 14.2697 13.1862 14.4684 13.0397 14.6149C12.8932 14.7614 12.6945 14.8438 12.4873 14.8438C12.2801 14.8438 12.0814 14.7614 11.9349 14.6149C11.7884 14.4684 11.7061 14.2697 11.7061 14.0625L11.7186 8.59375C11.7186 8.38655 11.8009 8.18784 11.9474 8.04132C12.0939 7.89481 12.2926 7.8125 12.4998 7.8125V7.8125Z" fill="#616B77"/>
<path d="M10.9375 14.0625C10.9375 14.4769 11.1021 14.8743 11.3951 15.1674C11.6882 15.4604 12.0856 15.625 12.5 15.625C12.9144 15.625 13.3118 15.4604 13.6049 15.1674C13.8979 14.8743 14.0625 14.4769 14.0625 14.0625C14.0625 13.6481 13.8979 13.2507 13.6049 12.9576C13.3118 12.6646 12.9144 12.5 12.5 12.5C12.0856 12.5 11.6882 12.6646 11.3951 12.9576C11.1021 13.2507 10.9375 13.6481 10.9375 14.0625ZM13.2812 3.125V6.25H11.7188V3.125H9.375C9.1678 3.125 8.96909 3.04269 8.82257 2.89618C8.67606 2.74966 8.59375 2.55095 8.59375 2.34375C8.59375 2.13655 8.67606 1.93784 8.82257 1.79132C8.96909 1.64481 9.1678 1.5625 9.375 1.5625H15.625C15.8322 1.5625 16.0309 1.64481 16.1774 1.79132C16.3239 1.93784 16.4062 2.13655 16.4062 2.34375C16.4062 2.55095 16.3239 2.74966 16.1774 2.89618C16.0309 3.04269 15.8322 3.125 15.625 3.125H13.2812Z" fill="#616B77"/>
</svg>
