<svg width="28" height="28" viewBox="0 0 28 28" fill="none" xmlns="http://www.w3.org/2000/svg">
<path d="M15.645 14L20.6617 8.99501C20.8813 8.77533 21.0048 8.47736 21.0048 8.16668C21.0048 7.85599 20.8813 7.55803 20.6617 7.33835C20.442 7.11866 20.144 6.99524 19.8333 6.99524C19.5226 6.99524 19.2247 7.11866 19.005 7.33835L14 12.355L8.99499 7.33835C8.7753 7.11866 8.47734 6.99524 8.16666 6.99524C7.85597 6.99524 7.55801 7.11866 7.33832 7.33835C7.11864 7.55803 6.99522 7.85599 6.99522 8.16668C6.99522 8.47736 7.11864 8.77533 7.33832 8.99501L12.355 14L7.33832 19.005C7.22897 19.1135 7.14218 19.2425 7.08295 19.3847C7.02372 19.5268 6.99323 19.6793 6.99323 19.8333C6.99323 19.9874 7.02372 20.1398 7.08295 20.282C7.14218 20.4242 7.22897 20.5532 7.33832 20.6617C7.44678 20.771 7.57581 20.8578 7.71798 20.9171C7.86015 20.9763 8.01264 21.0068 8.16666 21.0068C8.32067 21.0068 8.47316 20.9763 8.61533 20.9171C8.7575 20.8578 8.88653 20.771 8.99499 20.6617L14 15.645L19.005 20.6617C19.1134 20.771 19.2425 20.8578 19.3847 20.9171C19.5268 20.9763 19.6793 21.0068 19.8333 21.0068C19.9873 21.0068 20.1398 20.9763 20.282 20.9171C20.4242 20.8578 20.5532 20.771 20.6617 20.6617C20.771 20.5532 20.8578 20.4242 20.917 20.282C20.9763 20.1398 21.0068 19.9874 21.0068 19.8333C21.0068 19.6793 20.9763 19.5268 20.917 19.3847C20.8578 19.2425 20.771 19.1135 20.6617 19.005L15.645 14Z" fill="white"/>
</svg>
