<svg width="27" height="27" viewBox="0 0 27 27" fill="none" xmlns="http://www.w3.org/2000/svg">
<path d="M20.25 23.3437H13.5C13.2762 23.3437 13.0616 23.2549 12.9034 23.0966C12.7451 22.9384 12.6562 22.7238 12.6562 22.5C12.6562 22.2762 12.7451 22.0616 12.9034 21.9034C13.0616 21.7451 13.2762 21.6562 13.5 21.6562H20.25C20.623 21.6562 20.9806 21.5081 21.2444 21.2444C21.5081 20.9806 21.6562 20.623 21.6562 20.25V6.75C21.6562 6.37704 21.5081 6.01935 21.2444 5.75563C20.9806 5.49191 20.623 5.34375 20.25 5.34375H6.75C6.37704 5.34375 6.01935 5.49191 5.75563 5.75563C5.49191 6.01935 5.34375 6.37704 5.34375 6.75V13.5C5.34375 13.7238 5.25486 13.9384 5.09662 14.0966C4.93839 14.2549 4.72378 14.3437 4.5 14.3437C4.27622 14.3437 4.06161 14.2549 3.90338 14.0966C3.74514 13.9384 3.65625 13.7238 3.65625 13.5V6.75C3.65625 5.92949 3.9822 5.14258 4.56239 4.56239C5.14258 3.9822 5.92949 3.65625 6.75 3.65625H20.25C21.0705 3.65625 21.8574 3.9822 22.4376 4.56239C23.0178 5.14258 23.3437 5.92949 23.3437 6.75V20.25C23.3437 21.0705 23.0178 21.8574 22.4376 22.4376C21.8574 23.0178 21.0705 23.3437 20.25 23.3437Z" fill="white"/>
<path d="M18 14.3437C17.7771 14.3408 17.5642 14.251 17.4066 14.0934C17.249 13.9358 17.1592 13.7229 17.1562 13.5V9.84375H13.5C13.2762 9.84375 13.0616 9.75485 12.9034 9.59662C12.7451 9.43839 12.6562 9.22378 12.6562 9C12.6562 8.77622 12.7451 8.56161 12.9034 8.40338C13.0616 8.24514 13.2762 8.15625 13.5 8.15625H18C18.2229 8.15916 18.4358 8.24899 18.5934 8.4066C18.751 8.56421 18.8408 8.77713 18.8437 9V13.5C18.8408 13.7229 18.751 13.9358 18.5934 14.0934C18.4358 14.251 18.2229 14.3408 18 14.3437V14.3437Z" fill="white"/>
<path d="M12.9375 14.9063C12.7204 14.8897 12.5185 14.7887 12.375 14.625C12.2366 14.4703 12.1601 14.2701 12.1601 14.0625C12.1601 13.855 12.2366 13.6547 12.375 13.5L17.4375 8.43751C17.5974 8.28847 17.809 8.20733 18.0276 8.21119C18.2462 8.21505 18.4547 8.3036 18.6093 8.45819C18.7639 8.61278 18.8525 8.82134 18.8563 9.03993C18.8602 9.25851 18.779 9.47007 18.63 9.63001L13.5 14.625C13.3565 14.7887 13.1546 14.8897 12.9375 14.9063V14.9063ZM9 23.3438H5.625C5.10377 23.3408 4.60472 23.1324 4.23615 22.7639C3.86757 22.3953 3.6592 21.8962 3.65625 21.375V18C3.6592 17.4788 3.86757 16.9797 4.23615 16.6112C4.60472 16.2426 5.10377 16.0342 5.625 16.0313H9C9.52123 16.0342 10.0203 16.2426 10.3889 16.6112C10.7574 16.9797 10.9658 17.4788 10.9687 18V21.375C10.9658 21.8962 10.7574 22.3953 10.3889 22.7639C10.0203 23.1324 9.52123 23.3408 9 23.3438V23.3438ZM5.625 17.7188C5.55041 17.7188 5.47887 17.7484 5.42613 17.8011C5.37338 17.8539 5.34375 17.9254 5.34375 18V21.375C5.34375 21.4496 5.37338 21.5211 5.42613 21.5739C5.47887 21.6266 5.55041 21.6563 5.625 21.6563H9C9.07459 21.6563 9.14613 21.6266 9.19887 21.5739C9.25162 21.5211 9.28125 21.4496 9.28125 21.375V18C9.28125 17.9254 9.25162 17.8539 9.19887 17.8011C9.14613 17.7484 9.07459 17.7188 9 17.7188H5.625Z" fill="white"/>
</svg>
